<?xml version="1.0" standalone="no"?>
<!DOCTYPE svg PUBLIC "-//W3C//DTD SVG 20010904//EN"
 "http://www.w3.org/TR/2001/REC-SVG-20010904/DTD/svg10.dtd">
<svg version="1.0" xmlns="http://www.w3.org/2000/svg"
 width="400.000000pt" height="400.000000pt" viewBox="0 0 400.000000 400.000000"
 preserveAspectRatio="xMidYMid meet">

<g transform="translate(0.000000,400.000000) scale(0.100000,-0.100000)"
fill="#000000" stroke="none">
<path d="M0 2000 l0 -2000 2000 0 2000 0 0 2000 0 2000 -2000 0 -2000 0 0
-2000z m2127 1456 c242 -65 410 -136 568 -242 270 -180 492 -486 604 -829 50
-153 71 -260 78 -402 l6 -113 -1383 0 -1383 0 6 148 c16 389 185 753 489 1054
198 196 445 324 766 398 104 25 103 25 249 -14z m1233 -1681 c0 -13 -158 -15
-1360 -15 -1202 0 -1360 2 -1360 15 0 13 158 15 1360 15 1202 0 1360 -2 1360
-15z m-2516 -56 c24 -7 40 -18 43 -30 3 -10 12 -19 19 -19 8 0 14 -9 14 -20 0
-11 -7 -20 -15 -20 -12 0 -15 -13 -15 -60 0 -47 3 -60 15 -60 8 0 15 -7 15
-15 0 -11 -11 -15 -40 -15 -28 0 -40 4 -40 14 0 8 6 17 13 20 6 3 1 3 -13 -1
-63 -18 -120 7 -120 52 0 22 22 48 50 58 8 3 -4 6 -27 6 l-43 1 0 -59 c0 -33
5 -63 10 -66 19 -12 -1 -25 -36 -25 -24 0 -34 5 -34 15 0 8 7 15 15 15 12 0
15 13 15 59 0 43 -4 60 -15 65 -19 7 -20 36 -1 36 7 0 16 9 19 20 10 37 92 51
171 29z m579 0 c21 -5 43 -19 50 -30 15 -24 67 -27 67 -3 0 31 113 56 161 36
9 -4 31 -20 49 -35 29 -25 32 -31 22 -48 -15 -23 -16 -129 -2 -129 6 0 10 -7
10 -15 0 -11 -11 -15 -40 -15 -29 0 -40 4 -40 15 0 8 7 15 15 15 10 0 15 11
15 35 0 28 -4 35 -20 35 -13 0 -20 -7 -20 -19 0 -42 -71 -56 -94 -18 -21 33 4
52 73 55 45 2 61 7 61 17 0 12 -17 15 -80 15 l-80 0 0 -60 c0 -33 4 -60 10
-60 6 0 10 -6 10 -14 0 -11 -19 -14 -85 -15 -70 0 -85 3 -85 16 0 11 -6 14
-25 9 -68 -17 -113 60 -60 102 l25 20 -23 4 c-49 9 -57 1 -57 -63 0 -33 4 -59
10 -59 6 0 10 -7 10 -15 0 -10 -11 -15 -35 -15 -24 0 -35 5 -35 15 0 8 5 15
10 15 6 0 10 27 10 60 0 33 -4 60 -10 60 -21 0 -8 34 25 66 28 28 42 34 77 34
24 0 60 -5 81 -11z m1163 1 c48 -18 99 -90 64 -90 -5 0 -10 -9 -10 -20 0 -18
-7 -20 -60 -20 -47 0 -62 -4 -67 -16 -4 -11 1 -22 12 -30 24 -18 35 -18 35 1
0 20 43 29 69 15 25 -13 26 -23 6 -40 -10 -8 -13 -21 -9 -37 6 -22 4 -24 -14
-19 -11 4 -30 1 -41 -6 -27 -17 -56 0 -57 34 0 13 -8 35 -17 48 -22 31 -21 36
3 60 13 13 35 21 63 22 29 1 21 3 -28 7 -79 7 -83 4 -84 -66 -1 -29 4 -45 15
-51 24 -13 8 -32 -26 -32 -29 0 -53 21 -32 28 15 5 16 106 1 130 -9 15 -6 24
17 49 16 17 36 33 44 36 26 9 87 8 116 -3z m-588 -25 c17 -14 39 -25 50 -25
22 0 37 -26 20 -36 -7 -4 -9 -33 -6 -80 l5 -74 -29 0 c-18 0 -28 5 -28 15 0 8
5 15 10 15 6 0 10 26 10 59 0 55 -2 59 -25 63 -14 3 -26 2 -26 -1 -7 -28 -5
-112 2 -117 22 -13 8 -34 -22 -34 -26 0 -30 3 -26 20 4 18 1 19 -37 14 -38 -6
-45 -3 -64 21 -12 15 -22 37 -22 47 0 16 5 19 24 14 14 -3 28 0 35 8 14 16 4
26 -26 26 -16 0 -23 6 -23 20 0 18 7 20 81 20 51 0 78 4 74 10 -3 6 -19 10
-36 10 -19 0 -29 5 -29 15 0 24 55 18 88 -10z m-778 -39 c0 -8 -4 -18 -10 -21
-14 -9 -13 -122 2 -127 21 -7 -3 -28 -33 -28 -19 0 -29 5 -29 15 0 8 5 15 10
15 6 0 10 27 10 60 0 57 -1 60 -25 60 -24 0 -25 -3 -25 -59 0 -37 5 -61 12
-63 21 -7 -3 -28 -33 -28 -27 0 -41 21 -21 33 4 2 0 1 -8 -1 -67 -22 -126 -7
-117 30 3 10 1 21 -4 24 -15 9 -10 42 9 53 16 10 16 10 0 11 -11 0 -18 8 -18
20 0 19 7 20 140 20 115 0 140 -3 140 -14z m1165 -81 l0 -95 -32 0 c-23 0 -33
5 -33 15 0 8 5 15 10 15 6 0 10 27 10 60 0 57 -1 60 -25 60 -24 0 -25 -3 -25
-59 0 -37 5 -61 12 -63 21 -7 -3 -28 -33 -28 -19 0 -29 5 -29 15 0 8 5 15 10
15 6 0 10 27 10 60 0 53 -2 60 -19 60 -17 0 -19 -5 -14 -35 10 -62 -52 -105
-108 -75 -26 14 -25 56 2 70 24 13 38 5 21 -12 -23 -23 -14 -39 21 -36 27 2
33 8 35 31 4 35 -11 55 -46 59 -16 2 -28 10 -30 21 -3 15 8 17 130 17 l133 0
0 -95z m635 75 c0 -11 -4 -20 -10 -20 -6 0 -10 -27 -10 -60 0 -33 4 -60 10
-60 6 0 10 -7 10 -15 0 -10 -10 -15 -34 -15 -38 0 -57 16 -32 26 12 5 16 21
16 65 l0 59 -80 0 c-64 0 -80 -3 -80 -15 0 -18 1 -18 36 -5 20 8 36 8 56 -1
24 -10 29 -17 26 -43 -3 -34 -43 -61 -72 -50 -25 9 -19 22 11 26 17 2 29 10
31 21 5 24 -22 32 -58 17 -24 -10 -30 -19 -30 -41 0 -16 5 -29 10 -29 6 0 10
-7 10 -15 0 -10 -11 -15 -35 -15 -24 0 -35 5 -35 15 0 8 5 15 10 15 6 0 10 4
10 9 0 6 -12 6 -29 1 -59 -17 -104 38 -65 81 18 20 69 26 79 9 3 -5 -2 -10
-12 -10 -11 0 -28 -6 -39 -14 -18 -14 -18 -16 -2 -32 16 -16 18 -16 42 0 18
11 26 25 26 46 0 29 -2 30 -45 30 -38 0 -45 3 -45 20 0 19 7 20 165 20 158 0
165 -1 165 -20z m250 6 c0 -8 -4 -18 -10 -21 -5 -3 -10 -33 -10 -66 0 -33 4
-59 10 -59 6 0 10 -7 10 -16 0 -11 -9 -14 -37 -12 -35 3 -61 28 -29 28 11 0
16 9 16 30 0 25 -4 30 -22 30 -13 0 -32 -7 -42 -15 -11 -8 -28 -15 -38 -15
-24 0 -23 -21 2 -27 34 -9 24 -33 -14 -33 -35 0 -55 13 -37 25 6 3 2 19 -9 38
-11 18 -20 35 -20 40 0 12 22 8 39 -7 11 -9 23 -11 39 -5 40 15 23 54 -28 61
-14 1 -26 11 -28 21 -3 15 7 17 102 17 86 0 106 -3 106 -14z m74 -42 c21 -21
20 -31 -4 -44 -41 -22 -82 26 -42 49 23 14 28 14 46 -5z m6 -79 c10 -12 10
-18 0 -30 -17 -20 -49 -16 -64 8 -20 32 39 52 64 22z m10 -130 c0 -13 -158
-15 -1360 -15 -1202 0 -1360 2 -1360 15 0 13 158 15 1360 15 1202 0 1360 -2
1360 -15z m-2145 -140 l0 -30 -285 0 -285 0 -3 33 -3 32 288 -2 288 -3 0 -30z
m697 4 c3 -17 0 -33 -6 -35 -6 -2 -135 -3 -286 -2 l-275 3 -3 33 -3 32 284 0
285 0 4 -31z m722 -49 l64 -79 62 79 61 80 270 0 270 0 -3 -32 -3 -33 -236 -5
-236 -5 -93 -108 c-51 -59 -94 -107 -95 -105 -1 2 -44 52 -94 111 l-91 108
-230 -1 -230 -1 0 36 0 35 260 0 259 0 65 -80z m-1724 -165 l0 -155 -135 0
-135 0 0 30 0 30 80 0 80 0 0 95 0 95 -80 0 -80 0 0 30 0 30 135 0 135 0 0
-155z m308 128 c-3 -28 -4 -28 -91 -33 -48 -3 -87 -8 -87 -12 0 -5 0 -46 0
-93 l0 -85 91 0 90 0 -3 -27 -3 -28 -140 0 -140 0 -3 153 -3 152 146 0 146 0
-3 -27z m393 -98 c1 -69 2 -137 3 -152 l1 -28 -137 -3 -138 -3 0 31 c0 30 0
30 58 32 31 0 69 1 85 1 l27 0 0 93 0 94 -85 0 -85 0 0 30 0 30 135 0 135 0 1
-125z m301 95 l-4 -30 -84 0 -84 0 0 -94 0 -95 78 3 c95 3 98 2 96 -32 l-1
-27 -136 -3 -137 -3 0 156 0 155 138 0 139 0 -5 -30z m388 -125 l0 -155 -126
0 -125 0 3 32 3 32 68 -3 67 -2 0 95 0 96 -70 0 -70 0 0 30 0 30 125 0 125 0
0 -155z m296 40 c53 -63 101 -115 105 -115 4 0 49 52 100 115 l93 115 98 0 99
0 -3 -152 -3 -153 -115 0 -115 0 -3 28 c-4 29 -3 30 78 31 l45 1 3 83 c2 58 0
82 -8 77 -6 -4 -69 -76 -139 -160 l-129 -154 -138 160 c-76 87 -139 159 -141
159 -2 0 -3 -38 -3 -84 l0 -83 60 1 60 2 0 -33 0 -33 -110 0 -110 0 0 155 0
155 89 0 89 0 98 -115z m764 85 l0 -30 -75 0 -75 0 0 -94 0 -95 28 1 c15 1 48
1 75 0 45 -2 47 -3 47 -32 l0 -30 -125 0 -125 0 0 155 0 155 125 0 125 0 0
-30z m-2145 -335 l0 -30 -287 -3 -288 -2 0 35 0 35 288 -2 287 -3 0 -30z m699
13 c-1 -10 -2 -25 -3 -33 -1 -13 -40 -15 -286 -15 l-285 0 0 35 0 35 288 -2
c266 -3 287 -4 286 -20z m626 -13 l0 -35 -245 0 -245 0 0 35 0 35 245 0 245 0
0 -35z m820 0 l0 -35 -252 2 c-235 3 -253 4 -256 21 -9 47 -8 47 258 47 l250
0 0 -35z m-2491 -227 c30 -52 51 -78 63 -78 10 0 18 -7 18 -15 0 -12 -13 -15
-55 -15 -42 0 -55 3 -55 15 0 8 9 15 20 15 18 0 19 2 8 20 -10 16 -24 20 -68
20 -44 0 -58 -4 -68 -20 -11 -18 -10 -20 8 -20 11 0 20 -7 20 -15 0 -12 -13
-15 -60 -15 -47 0 -60 3 -60 15 0 8 9 15 20 15 23 0 110 112 92 118 -7 2 -12
13 -12 23 0 17 6 20 42 17 41 -3 43 -5 87 -80z m209 65 c-2 -10 -13 -19 -26
-21 -14 -2 -22 -10 -22 -23 0 -17 8 -19 75 -19 67 0 75 2 75 19 0 13 -8 21
-22 23 -13 2 -24 11 -26 21 -3 15 5 17 57 17 54 0 61 -2 61 -20 0 -13 -7 -20
-20 -20 -18 0 -20 -7 -20 -60 0 -53 2 -60 20 -60 11 0 20 -7 20 -15 0 -12 -13
-15 -60 -15 -47 0 -60 3 -60 15 0 9 9 15 25 15 21 0 25 5 25 30 l0 30 -75 0
-75 0 0 -30 c0 -25 4 -30 25 -30 16 0 25 -6 25 -15 0 -12 -13 -15 -60 -15 -47
0 -60 3 -60 15 0 8 9 15 20 15 18 0 20 7 20 59 0 50 -3 59 -20 64 -11 3 -20
12 -20 21 0 13 12 16 61 16 52 0 60 -2 57 -17z m339 -53 l46 -71 46 71 c43 66
48 70 84 70 27 0 37 -4 37 -16 0 -9 -9 -18 -20 -21 -17 -5 -20 -14 -20 -64 0
-52 2 -59 20 -59 11 0 20 -7 20 -15 0 -12 -13 -15 -60 -15 -47 0 -60 3 -60 15
0 8 9 15 20 15 17 0 20 7 20 46 l0 47 -18 -24 c-10 -13 -29 -41 -41 -61 -12
-21 -24 -38 -27 -38 -2 0 -24 30 -49 67 l-45 68 0 -53 c0 -45 3 -52 20 -52 11
0 20 -7 20 -15 0 -12 -13 -15 -60 -15 -47 0 -60 3 -60 15 0 9 9 15 25 15 24 0
25 3 25 60 0 57 -1 60 -25 60 -18 0 -25 5 -25 20 0 17 7 20 40 20 38 0 42 -3
87 -70z m483 35 c0 -24 -5 -35 -15 -35 -8 0 -15 6 -15 14 0 19 -10 22 -80 18
-51 -3 -60 -7 -60 -23 0 -16 7 -19 45 -19 25 0 45 -4 45 -10 0 -5 -20 -10 -45
-10 -43 0 -45 -1 -45 -30 l0 -30 70 0 c56 0 70 3 70 15 0 8 7 15 15 15 10 0
15 -10 15 -30 l0 -30 -120 0 c-100 0 -120 3 -120 15 0 8 9 15 20 15 18 0 20 7
20 59 0 50 -3 59 -20 64 -11 3 -20 12 -20 21 0 14 17 16 120 16 l120 0 0 -35z
m275 25 c27 -10 55 -62 55 -100 0 -12 -13 -35 -29 -51 -29 -28 -32 -29 -135
-29 -88 0 -106 3 -106 15 0 8 9 15 20 15 18 0 20 7 20 60 0 53 -2 60 -20 60
-13 0 -20 7 -20 20 0 19 7 20 94 20 52 0 106 -4 121 -10z m250 -70 c28 -44 56
-80 63 -80 6 0 12 -7 12 -15 0 -11 -12 -15 -50 -15 -38 0 -50 4 -50 15 0 8 9
15 20 15 18 0 19 2 8 20 -10 16 -24 20 -65 20 -42 0 -54 -4 -63 -20 -9 -17 -8
-20 10 -20 11 0 20 -7 20 -15 0 -12 -13 -15 -55 -15 -40 0 -55 4 -55 14 0 7 8
16 18 18 11 3 33 30 50 59 29 51 30 54 11 61 -19 8 -24 19 -12 31 3 4 25 7 47
7 40 -1 42 -2 91 -80z m316 59 c13 -13 18 -26 13 -37 -4 -9 -6 -26 -5 -37 7
-92 3 -95 -125 -95 -86 0 -104 3 -104 15 0 8 7 15 15 15 12 0 15 13 15 59 0
43 -4 60 -15 65 -8 3 -15 12 -15 21 0 12 17 15 100 15 88 0 103 -3 121 -21z
m234 -55 c26 -41 53 -78 61 -81 7 -2 15 -11 18 -19 4 -11 -6 -14 -49 -14 -42
0 -55 3 -55 15 0 8 9 15 20 15 18 0 19 3 10 20 -18 35 -130 24 -130 -12 0 -4
7 -8 15 -8 8 0 15 -7 15 -15 0 -12 -13 -15 -55 -15 -42 0 -55 3 -55 15 0 8 8
15 18 15 12 0 29 19 48 52 39 70 38 68 20 68 -9 0 -16 8 -16 20 0 17 7 20 43
20 43 0 44 0 92 -76z m356 47 c39 -39 41 -100 4 -136 -23 -24 -31 -25 -135
-25 -91 0 -110 3 -110 15 0 8 9 15 20 15 18 0 20 7 20 60 0 53 -2 60 -20 60
-13 0 -20 7 -20 20 0 19 7 20 106 20 103 0 106 -1 135 -29z"/>
<path d="M1835 3415 c-91 -23 -173 -52 -189 -66 -4 -4 -1 -29 8 -56 l16 -49
98 33 c53 17 120 35 149 39 l53 6 0 59 c0 70 2 70 -135 34z"/>
<path d="M2012 3384 l3 -57 70 -18 c39 -10 103 -30 144 -44 41 -14 75 -24 77
-22 6 7 34 81 34 92 0 15 -116 59 -225 86 -111 26 -106 28 -103 -37z"/>
<path d="M1492 3290 c-90 -43 -172 -97 -172 -114 0 -6 11 -28 25 -49 l26 -37
52 31 c29 17 89 49 135 70 45 22 82 41 82 43 0 1 -7 23 -16 49 -10 31 -22 47
-32 47 -10 0 -54 -18 -100 -40z"/>
<path d="M2375 3318 c-3 -7 -11 -31 -18 -53 l-14 -40 66 -34 c36 -19 94 -52
129 -73 34 -21 64 -38 66 -38 6 0 56 80 56 90 0 19 -192 134 -258 154 -14 5
-24 3 -27 -6z"/>
<path d="M1890 3274 c-290 -86 -512 -215 -690 -400 -222 -232 -354 -537 -376
-866 l-7 -98 552 0 552 0 -8 38 c-4 20 -8 73 -8 117 1 71 5 89 38 159 20 43
30 73 22 66 -13 -11 -15 3 -15 109 0 66 4 121 8 121 5 0 17 -18 27 -40 13 -30
16 -54 12 -97 -3 -35 -2 -50 3 -38 5 11 9 42 9 69 1 63 -27 120 -89 181 -57
56 -138 82 -202 64 -44 -11 -47 -21 -16 -43 35 -25 120 -15 139 16 4 7 9 7 13
-1 9 -14 -41 -61 -68 -63 -12 0 -32 0 -45 1 -18 2 -22 -2 -17 -14 3 -9 6 -19
6 -21 0 -3 14 -11 32 -18 l32 -14 18 41 c19 42 34 41 40 -3 3 -22 7 -25 36
-22 37 4 43 -15 13 -42 -18 -16 -18 -18 10 -46 16 -16 29 -33 29 -39 0 -14
-35 -14 -60 -1 -15 8 -19 5 -24 -23 -10 -52 -43 -97 -86 -115 l-40 -17 55 -42
c30 -24 64 -61 75 -84 55 -106 -41 -217 -142 -165 -23 12 -29 12 -39 0 -14
-18 -132 -18 -122 0 20 35 49 56 80 56 27 0 33 4 33 21 0 12 17 37 38 57 l37
37 3 -55 c3 -47 0 -57 -19 -73 -19 -15 -20 -20 -8 -28 35 -22 104 6 120 48 21
57 -19 116 -125 182 -69 43 -76 41 -76 -20 0 -117 -54 -195 -155 -224 -112
-33 -215 26 -215 123 0 29 -2 32 -19 22 -28 -14 -38 -13 -62 11 l-20 20 -35
-21 c-18 -12 -34 -25 -34 -29 0 -22 51 -61 80 -61 38 0 40 -23 4 -46 -23 -16
-28 -16 -59 -1 -28 13 -34 14 -39 2 -9 -25 -66 -47 -102 -41 -65 13 -96 96
-55 147 l20 24 16 -39 c13 -30 14 -45 6 -63 -17 -37 -14 -43 27 -43 50 0 82
32 82 83 0 33 -3 37 -25 37 -62 0 -126 46 -145 106 -12 35 2 114 20 114 22 0
42 -63 37 -112 -6 -45 -4 -49 23 -63 16 -8 39 -15 50 -15 21 0 21 0 2 28 -82
117 -87 216 -14 290 33 32 35 39 33 87 -4 80 17 133 70 187 33 33 43 48 33 52
-21 8 -17 63 6 86 26 26 38 25 33 -3 -8 -43 24 -64 104 -70 l73 -6 -16 23 c-8
13 -27 26 -42 30 -34 7 -95 63 -86 77 4 7 24 9 50 6 44 -4 44 -4 54 33 11 42
69 100 99 100 13 0 21 10 25 33 l7 32 29 -33 c29 -31 31 -32 55 -16 21 14 26
14 30 2 3 -8 1 -28 -5 -44 -8 -21 -8 -30 0 -32 6 -2 23 -15 38 -27 l27 -23
-28 -7 c-15 -4 -36 -5 -47 -2 -18 5 -19 1 -14 -33 8 -49 -8 -58 -38 -22 l-23
28 -32 -19 -33 -19 0 29 c0 15 4 35 10 43 7 11 2 17 -21 27 -38 16 -34 33 12
49 19 7 29 13 22 13 -81 5 -123 -120 -67 -203 30 -44 110 -86 167 -86 37 0 37
0 37 43 1 77 56 161 123 186 67 26 166 2 215 -51 19 -21 23 -35 20 -74 l-3
-49 -22 36 c-23 36 -89 89 -111 89 -7 0 -12 -7 -12 -15 0 -23 -39 -96 -67
-127 l-25 -26 41 5 c56 8 125 -11 193 -52 31 -19 59 -35 62 -35 3 0 5 15 5 33
-1 24 -3 26 -6 9 -3 -15 -10 -22 -21 -20 -15 3 -17 22 -14 186 3 163 2 181
-12 176 -10 -4 -16 -1 -16 9 0 8 -5 17 -11 19 -8 3 -6 10 5 20 9 9 16 21 16
27 0 7 8 7 24 1 13 -5 27 -6 31 -2 4 4 5 0 4 -8 -2 -8 6 -25 19 -38 12 -12 22
-27 22 -34 0 -9 -3 -9 -12 0 -7 7 -16 12 -20 12 -5 0 -7 -71 -6 -158 3 -132 5
-153 14 -123 26 86 96 167 171 198 24 10 41 23 39 30 -7 17 5 23 23 13 14 -7
21 -1 35 25 38 71 120 81 191 25 21 -17 44 -30 51 -30 13 0 44 27 44 38 0 4
-30 26 -67 49 -142 86 -276 143 -432 183 -96 24 -87 25 -191 -6z m55 -23 c7
-12 -12 -24 -25 -16 -11 7 -4 25 10 25 5 0 11 -4 15 -9z m125 0 c0 -14 -18
-23 -30 -16 -6 4 -8 11 -5 16 8 12 35 12 35 0z m58 -14 c2 -12 -3 -17 -17 -17
-12 0 -21 6 -21 13 0 31 32 34 38 4z m-248 -2 c0 -8 -7 -15 -15 -15 -8 0 -15
7 -15 15 0 8 7 15 15 15 8 0 15 -7 15 -15z m122 -7 c-9 -9 -15 -9 -24 0 -9 9
-7 12 12 12 19 0 21 -3 12 -12z m-82 -28 c0 -5 -4 -10 -10 -10 -5 0 -10 5 -10
10 0 6 5 10 10 10 6 0 10 -4 10 -10z m95 -2 c9 -9 -23 -30 -35 -23 -17 11 -11
32 10 30 11 -1 22 -4 25 -7z m65 3 c0 -6 -4 -13 -10 -16 -5 -3 -10 1 -10 9 0
9 5 16 10 16 6 0 10 -4 10 -9z m-345 -10 c10 -18 -17 -23 -33 -7 -15 15 -15
16 5 16 12 0 24 -4 28 -9z m565 1 c0 -10 -22 -32 -32 -32 -13 0 -9 28 5 33 19
8 27 8 27 -1z m-510 -32 c0 -13 -33 -21 -44 -10 -7 7 -6 10 2 10 7 0 12 7 12
16 0 14 3 14 15 4 8 -7 15 -16 15 -20z m449 -12 c1 -12 -27 -9 -34 2 -4 6 -1
18 6 26 12 14 14 14 20 -3 4 -10 8 -21 8 -25z m-409 12 c6 -11 8 -25 5 -30 -8
-13 -55 -13 -55 0 0 6 6 10 14 10 9 0 12 7 9 20 -7 26 13 26 27 0z m358 3 c-2
-10 3 -23 11 -29 21 -16 -12 -26 -34 -10 -14 10 -15 16 -6 34 14 26 34 29 29
5z m-307 -31 c10 -26 -18 -47 -42 -31 -11 8 -11 12 -1 16 6 2 12 14 12 25 0
25 21 19 31 -10z m139 15 c0 -18 -34 -36 -47 -25 -22 18 -14 35 17 35 17 0 30
-5 30 -10z m123 -3 c-3 -9 0 -20 7 -24 23 -14 1 -31 -23 -19 -30 16 -30 15
-17 38 13 25 42 29 33 5z m-212 -31 c6 -17 4 -25 -11 -33 -10 -5 -26 -7 -36
-3 -16 6 -16 7 1 19 10 8 15 20 11 29 -4 12 -1 15 10 13 9 -2 20 -13 25 -25z
m162 12 c-3 -9 2 -22 13 -30 18 -14 18 -14 -6 -15 -14 0 -30 4 -37 8 -18 11
-4 52 18 52 12 0 16 -5 12 -15z m-45 -46 c7 -12 11 -24 8 -27 -6 -6 -35 27
-36 41 0 14 15 7 28 -14z m-138 -34 c10 -12 10 -18 0 -30 -16 -19 -41 -20 -34
-1 3 8 1 17 -5 21 -6 3 -11 10 -11 16 0 15 36 10 50 -6z m200 -10 c-6 -7 -8
-20 -4 -29 10 -25 -23 -20 -37 6 -9 18 -8 24 6 34 22 16 50 7 35 -11z m-260
-10 c10 -12 10 -18 0 -30 -18 -22 -39 -19 -33 5 3 11 0 20 -6 20 -6 0 -11 5
-11 10 0 15 36 12 50 -5z m325 5 c3 -5 1 -10 -5 -10 -8 0 -10 -9 -6 -26 6 -22
5 -24 -13 -15 -10 6 -21 17 -24 25 -10 26 33 50 48 26z m-380 -30 c0 -8 -8
-16 -19 -18 -11 -3 -16 0 -12 7 4 6 2 11 -4 11 -6 0 -8 5 -5 11 10 15 40 7 40
-11z m428 3 c-7 -3 -9 -11 -6 -19 3 -8 -1 -14 -10 -14 -19 0 -31 31 -16 41 7
4 19 4 28 1 9 -3 11 -7 4 -9z m-483 -24 c0 -5 -10 -9 -21 -9 -18 0 -19 2 -9
15 12 15 30 12 30 -6z"/>
<path d="M1229 3113 c-67 -55 -138 -125 -161 -157 l-21 -28 39 -33 39 -33 105
100 c58 55 106 104 108 109 4 10 -46 79 -57 79 -4 0 -27 -17 -52 -37z"/>
<path d="M2666 3110 c-14 -22 -26 -43 -26 -47 1 -5 26 -28 56 -53 31 -25 79
-70 108 -101 l52 -56 43 38 43 39 -63 66 c-56 58 -169 154 -182 154 -2 0 -16
-18 -31 -40z"/>
<path d="M1481 3025 c-1 -21 15 -52 23 -45 2 3 -2 19 -9 35 -10 23 -14 25 -14
10z"/>
<path d="M2365 3028 c-26 -14 -46 -39 -39 -49 3 -5 16 -9 29 -9 14 0 48 -9 77
-20 29 -11 54 -20 56 -20 1 0 2 12 2 26 0 38 -16 61 -51 73 -39 13 -48 13 -74
-1z"/>
<path d="M2600 3007 c0 -39 -21 -67 -50 -67 -10 0 -20 -9 -23 -20 -4 -15 6
-29 36 -54 57 -46 78 -51 110 -25 31 23 34 45 11 77 -14 20 -14 22 3 22 27 0
43 -20 43 -52 0 -22 4 -28 23 -28 27 0 67 -26 67 -43 0 -17 -89 -37 -118 -26
-25 10 -104 1 -97 -10 2 -4 9 -62 14 -130 10 -111 23 -160 52 -197 7 -8 21 -7
54 4 39 12 45 18 45 42 0 24 -5 29 -35 34 -21 4 -35 13 -35 21 0 8 4 15 8 15
5 0 14 18 21 41 7 22 21 47 31 56 17 15 17 19 4 44 -16 32 -18 55 -5 64 16 9
81 -36 87 -60 4 -15 15 -25 33 -28 45 -9 87 -52 101 -102 14 -49 8 -129 -11
-151 -29 -35 47 -60 83 -28 16 15 18 15 24 1 10 -26 0 -51 -24 -62 -20 -9 -21
-15 -16 -55 13 -97 -52 -166 -132 -140 -45 15 -68 51 -60 92 6 32 23 58 36 58
5 0 16 -20 25 -44 13 -34 14 -48 6 -65 -11 -19 -9 -21 23 -21 44 0 76 41 76
96 0 35 -1 36 -18 21 -20 -18 -57 -23 -66 -8 -3 4 3 16 14 26 21 19 26 51 11
73 -7 11 -17 9 -52 -9 -54 -28 -119 -29 -183 -5 -26 10 -50 15 -54 12 -3 -4
-6 -23 -6 -43 0 -27 7 -42 29 -61 18 -15 31 -20 33 -13 9 28 122 62 122 37 0
-27 -68 -76 -105 -76 -42 0 -101 47 -110 88 -4 19 -15 32 -35 39 -25 9 -30 17
-30 43 0 27 3 31 18 25 9 -4 30 -10 45 -13 l29 -5 -25 40 c-14 22 -32 59 -39
82 l-15 42 -36 -40 c-40 -45 -52 -78 -43 -116 5 -21 3 -25 -18 -25 -27 0 -43
15 -48 47 l-3 22 -53 -27 c-104 -54 -161 -122 -162 -193 0 -41 29 -115 55
-139 29 -28 31 -25 44 81 16 133 62 193 147 191 86 -1 144 -57 152 -147 4 -45
7 -55 21 -51 56 17 75 17 117 1 34 -13 53 -29 73 -60 37 -58 72 -99 104 -120
37 -24 104 -22 130 4 21 21 17 51 -7 51 -16 0 -85 41 -86 52 0 12 55 25 77 17
18 -7 22 -3 27 26 7 33 31 63 43 51 3 -3 8 -32 10 -65 4 -46 1 -60 -11 -64 -9
-4 -16 -17 -16 -29 0 -35 -26 -65 -66 -78 -45 -15 -76 -7 -141 35 l-51 34 -37
-34 c-26 -26 -46 -35 -70 -35 -24 0 -34 -5 -38 -20 -5 -20 0 -20 245 -20 l251
0 -6 93 c-17 249 -91 467 -234 681 -65 97 -213 258 -300 325 l-43 33 0 -35z"/>
<path d="M1548 3007 c-20 -16 -31 -48 -15 -41 14 5 40 44 34 50 -2 2 -10 -2
-19 -9z"/>
<path d="M2543 2993 c-25 -5 -30 -19 -10 -26 15 -5 47 10 47 23 0 6 -3 9 -7 9
-5 -1 -18 -4 -30 -6z"/>
<path d="M1420 2960 c0 -5 15 -10 33 -10 24 0 28 3 17 10 -20 13 -50 13 -50 0z"/>
<path d="M1550 2930 c20 -13 53 -13 45 0 -3 6 -18 10 -33 10 -21 0 -24 -2 -12
-10z"/>
<path d="M1462 2910 c-6 -11 -12 -25 -12 -31 0 -15 27 7 41 33 14 26 -12 24
-29 -2z"/>
<path d="M2213 2901 c-138 -66 -169 -180 -113 -411 28 -118 25 -155 -17 -278
-29 -86 -36 -122 -37 -187 -1 -127 -34 -115 319 -115 271 0 305 2 292 15 -9 8
-17 20 -19 27 -3 8 -11 7 -28 -5 -26 -18 -60 -23 -60 -8 0 5 9 19 19 32 20 24
20 24 -7 46 -23 19 -25 24 -12 33 8 6 24 8 36 5 17 -4 20 0 20 29 l0 33 -62
-52 c-33 -29 -67 -54 -73 -56 -9 -3 -8 -13 5 -36 10 -17 16 -35 12 -38 -13
-14 -88 16 -110 44 -30 38 -65 42 -106 12 -25 -17 -43 -22 -72 -19 -31 3 -41
0 -45 -13 -5 -15 -52 -39 -76 -39 -12 0 -11 37 1 61 6 10 18 19 26 19 12 0 14
5 9 18 -17 38 -17 75 0 113 22 47 36 46 49 -5 7 -32 5 -43 -13 -66 l-21 -29
26 -20 c32 -25 62 -27 93 -5 l23 16 -36 37 c-19 20 -42 53 -51 73 -22 53 -19
140 5 188 25 49 25 47 -4 54 -28 7 -41 36 -31 67 7 21 7 21 28 1 35 -31 58
-35 94 -15 39 21 41 26 9 41 -60 27 -95 117 -67 171 11 19 11 28 1 47 l-13 23
-25 -19 c-42 -34 -51 -20 -27 42 4 9 -4 19 -20 26 -33 15 -32 31 5 45 23 9 28
16 24 33 -8 32 16 42 37 15 l19 -23 27 22 c27 21 28 21 31 3 2 -10 -1 -30 -6
-43 -8 -22 -6 -26 21 -35 44 -14 45 -33 3 -41 -29 -5 -36 -11 -36 -29 0 -20 5
-22 40 -21 l40 1 0 42 c0 49 10 54 39 17 19 -24 21 -25 43 -10 39 28 51 21 43
-24 -6 -35 -4 -40 12 -40 10 0 24 -4 32 -9 21 -13 -4 -41 -36 -41 -20 0 -24
-4 -18 -17 27 -64 9 -90 -34 -49 l-27 26 -29 -33 c-29 -31 -30 -32 -33 -9 -2
13 1 36 7 53 9 26 8 29 -12 29 -29 0 -51 15 -43 29 10 16 -10 13 -28 -4 -42
-43 -25 -103 41 -142 35 -20 53 -24 84 -20 113 15 208 159 178 270 -6 23 -22
57 -35 74 l-25 33 -21 -20 c-22 -20 -78 -27 -112 -14 -29 11 -16 23 19 17 33
-5 85 16 85 35 0 17 -77 45 -135 49 -52 4 -69 0 -122 -26z"/>
<path d="M1511 2910 c0 -8 6 -26 14 -40 13 -23 14 -23 15 -4 0 11 -7 29 -15
40 -11 14 -14 15 -14 4z"/>
<path d="M981 2859 c-39 -49 -146 -228 -139 -233 19 -14 100 -57 101 -54 35
67 70 128 111 186 l50 73 -40 40 -41 41 -42 -53z"/>
<path d="M2920 2865 l-34 -35 44 -63 c24 -34 63 -92 85 -129 l42 -67 41 25
c23 14 42 31 42 37 0 27 -162 267 -180 267 -3 0 -21 -16 -40 -35z"/>
<path d="M1684 2865 c-40 -40 -72 -135 -45 -135 27 0 87 71 110 133 10 25 9
27 -15 27 -14 0 -36 -11 -50 -25z"/>
<path d="M1293 2845 c29 -26 47 -32 47 -16 0 13 -41 41 -60 41 -10 -1 -6 -9
13 -25z"/>
<path d="M2180 2839 c0 -8 7 -24 15 -35 18 -24 19 -7 0 26 -9 16 -14 19 -15 9z"/>
<path d="M2710 2825 c-11 -13 -8 -15 21 -15 43 0 69 14 44 24 -27 10 -52 7
-65 -9z"/>
<path d="M2240 2815 c-7 -9 -10 -18 -7 -21 3 -3 10 4 17 15 13 25 8 27 -10 6z"/>
<path d="M1170 2794 c0 -12 7 -27 15 -34 23 -19 25 -9 4 25 -17 26 -19 27 -19
9z"/>
<path d="M2153 2773 c9 -2 23 -2 30 0 6 3 -1 5 -18 5 -16 0 -22 -2 -12 -5z"/>
<path d="M2250 2759 c0 -5 11 -9 25 -9 14 0 25 2 25 4 0 2 -11 6 -25 8 -14 3
-25 1 -25 -3z"/>
<path d="M2770 2747 c0 -17 32 -47 49 -47 17 0 -4 37 -29 50 -15 8 -20 8 -20
-3z"/>
<path d="M2183 2738 c-20 -26 -26 -41 -15 -34 12 7 36 46 29 46 -3 0 -9 -6
-14 -12z"/>
<path d="M2220 2721 c0 -11 5 -23 10 -26 6 -3 10 3 10 14 0 11 -4 23 -10 26
-5 3 -10 -3 -10 -14z"/>
<path d="M2360 2718 c0 -24 11 -48 22 -48 5 0 6 10 3 23 -10 30 -25 46 -25 25z"/>
<path d="M1227 2706 c-42 -16 -63 -30 -94 -66 -30 -34 -29 -37 12 -32 32 4 35
7 35 38 0 39 17 45 44 15 16 -17 20 -18 44 -5 38 20 42 18 42 -16 0 -22 5 -30
18 -30 10 0 27 -7 38 -15 10 -8 22 -15 27 -15 11 0 9 48 -3 71 -17 31 16 24
51 -10 35 -36 36 -45 5 -76 -22 -22 -23 -28 -14 -59 15 -47 -2 -104 -44 -152
l-32 -36 46 -43 c49 -47 111 -70 159 -60 16 4 29 8 29 11 0 10 -55 114 -61
114 -4 0 -12 -7 -19 -15 -17 -20 -55 -19 -76 2 -16 16 -15 18 14 25 37 10 62
51 62 101 0 53 26 126 59 168 17 21 31 40 31 43 0 3 -21 6 -47 6 -27 0 -76 9
-110 19 -90 27 -170 34 -216 17z"/>
<path d="M2433 2708 c-19 -24 -24 -38 -15 -38 5 0 14 11 20 25 13 27 10 32 -5
13z"/>
<path d="M2792 2661 c-11 -6 -10 -10 0 -19 11 -8 17 -6 26 9 10 15 10 19 0 19
-7 0 -19 -4 -26 -9z"/>
<path d="M2325 2649 c-16 -6 -14 -8 13 -8 33 -1 41 4 20 12 -7 2 -22 1 -33 -4z"/>
<path d="M2430 2650 c-11 -7 -6 -10 20 -10 26 0 31 3 20 10 -8 5 -17 10 -20
10 -3 0 -12 -5 -20 -10z"/>
<path d="M2868 2630 c-4 -26 -1 -30 18 -30 12 0 30 -3 39 -6 14 -6 14 -8 -1
-25 -9 -11 -26 -19 -37 -19 -13 0 -17 -5 -13 -16 17 -43 18 -64 4 -64 -8 0
-23 6 -34 14 -14 11 -22 11 -32 3 -11 -8 1 -15 50 -29 34 -9 66 -17 69 -18 16
-1 31 64 27 112 -4 42 -11 57 -37 80 -40 35 -48 35 -53 -2z"/>
<path d="M1200 2626 c0 -14 5 -28 10 -31 6 -3 10 5 10 19 0 14 -4 28 -10 31
-6 3 -10 -5 -10 -19z"/>
<path d="M2830 2630 c-6 -11 -9 -26 -7 -33 3 -7 10 1 16 17 14 35 7 47 -9 16z"/>
<path d="M1257 2622 c-23 -25 -24 -50 -1 -32 20 17 37 50 26 50 -5 0 -16 -8
-25 -18z"/>
<path d="M1420 2611 c0 -17 5 -31 10 -31 6 0 10 11 10 24 0 14 -4 28 -10 31
-6 4 -10 -7 -10 -24z"/>
<path d="M2770 2621 c0 -5 7 -14 15 -21 16 -14 18 -10 9 14 -6 17 -24 22 -24
7z"/>
<path d="M2361 2596 c-6 -16 -10 -31 -7 -33 7 -8 28 37 23 50 -3 7 -10 -1 -16
-17z"/>
<path d="M2410 2612 c0 -5 9 -20 19 -33 20 -24 20 -24 14 -2 -6 24 -33 53 -33
35z"/>
<path d="M1606 2586 c-8 -14 -21 -45 -28 -70 -21 -80 16 -196 73 -226 46 -25
77 110 49 211 -11 40 -49 100 -66 106 -6 2 -19 -7 -28 -21z"/>
<path d="M805 2562 c-20 -43 -79 -204 -88 -243 -6 -25 -4 -27 38 -38 66 -17
70 -15 84 37 6 26 28 87 48 135 19 48 34 89 32 91 -2 1 -25 14 -50 29 l-46 26
-18 -37z"/>
<path d="M3125 2579 c-16 -11 -36 -23 -42 -27 -10 -6 -5 -27 21 -87 18 -44 43
-110 55 -146 l22 -67 44 17 c24 9 47 19 50 22 9 9 -33 135 -75 226 -21 46 -40
83 -42 82 -2 0 -16 -9 -33 -20z"/>
<path d="M1098 2562 c-2 -15 -1 -43 2 -62 5 -33 7 -35 58 -42 54 -8 103 -28
134 -55 15 -14 18 -13 24 13 3 16 20 53 36 83 34 61 29 76 -32 87 l-35 6 33
-21 c40 -26 37 -45 -6 -49 -29 -3 -32 -6 -32 -38 0 -41 -11 -43 -39 -8 -19 24
-21 25 -46 8 -33 -22 -41 -13 -28 31 9 27 8 35 -2 35 -7 0 -24 9 -38 20 l-25
20 -4 -28z"/>
<path d="M1145 2580 c3 -5 17 -10 31 -10 14 0 22 4 19 10 -3 6 -17 10 -31 10
-14 0 -22 -4 -19 -10z"/>
<path d="M2855 2580 c-17 -7 -15 -9 13 -9 17 -1 32 4 32 9 0 12 -17 12 -45 0z"/>
<path d="M1260 2561 c0 -10 25 -21 48 -21 15 1 14 3 -2 15 -22 17 -46 20 -46
6z"/>
<path d="M2740 2560 c-12 -8 -9 -10 12 -10 15 0 30 5 33 10 8 13 -25 13 -45 0z"/>
<path d="M1197 2532 c-19 -20 -23 -37 -7 -27 10 6 33 45 27 45 -2 0 -11 -8
-20 -18z"/>
<path d="M1240 2525 c0 -11 5 -27 10 -35 8 -12 10 -12 10 5 0 11 -5 27 -10 35
-8 12 -10 12 -10 -5z"/>
<path d="M1828 2534 c-5 -4 -8 -19 -8 -33 1 -23 2 -24 11 -8 11 19 9 53 -3 41z"/>
<path d="M2797 2534 c-4 -4 -7 -17 -7 -28 1 -19 1 -20 11 -3 11 19 8 43 -4 31z"/>
<path d="M2840 2521 c10 -21 30 -37 30 -26 0 14 -21 45 -31 45 -6 0 -6 -7 1
-19z"/>
<path d="M1381 2507 c-32 -39 -55 -147 -32 -147 20 0 54 65 59 111 5 49 -5 62
-27 36z"/>
<path d="M1750 2496 c0 -12 33 -36 48 -36 14 1 12 5 -7 20 -21 19 -41 26 -41
16z"/>
<path d="M1870 2490 c-8 -5 -11 -12 -7 -16 4 -4 15 0 24 9 18 18 8 23 -17 7z"/>
<path d="M2454 2444 c-4 -14 -2 -30 4 -36 6 -6 11 2 14 26 5 41 -8 49 -18 10z"/>
<path d="M1750 2444 c0 -8 5 -12 10 -9 6 4 8 11 5 16 -9 14 -15 11 -15 -7z"/>
<path d="M1869 2420 c13 -11 28 -20 35 -20 6 1 0 10 -13 20 -13 11 -28 20 -35
20 -6 -1 0 -10 13 -20z"/>
<path d="M2740 2428 l-35 -10 29 -15 c44 -23 156 -18 156 6 0 9 -79 32 -102
30 -7 0 -29 -5 -48 -11z"/>
<path d="M1770 2415 c-21 -25 -1 -31 23 -7 17 18 18 22 5 22 -8 0 -21 -7 -28
-15z"/>
<path d="M1132 2408 c6 -17 84 -56 128 -64 l35 -7 -25 28 c-14 15 -37 33 -52
41 -34 18 -91 19 -86 2z"/>
<path d="M1824 2406 c-3 -8 -1 -23 5 -33 9 -15 10 -13 11 15 0 34 -7 42 -16
18z"/>
<path d="M2170 2409 c0 -12 38 -31 44 -21 2 4 -7 12 -20 19 -13 6 -24 7 -24 2z"/>
<path d="M1046 2379 c-46 -54 -46 -107 -1 -207 29 -63 47 -73 81 -41 36 34 50
89 35 142 -14 45 -68 137 -81 137 -5 0 -20 -14 -34 -31z"/>
<path d="M1779 2376 c-25 -8 -77 -91 -65 -103 8 -8 73 17 89 35 11 12 13 26 9
47 -6 28 -9 30 -33 21z"/>
<path d="M2580 2378 c0 -14 30 -22 41 -11 7 7 2 12 -15 15 -14 3 -26 1 -26 -4z"/>
<path d="M1503 2367 c-4 -8 -17 -19 -28 -26 -18 -11 -19 -12 -1 -9 16 3 57 48
43 48 -3 0 -10 -6 -14 -13z"/>
<path d="M3026 2371 c-14 -5 -16 -10 -7 -15 15 -9 41 -1 41 14 0 11 -7 12 -34
1z"/>
<path d="M2438 2333 c-23 -6 -22 -14 5 -39 l23 -22 26 23 27 23 -31 11 c-17 6
-31 10 -32 10 -1 -1 -9 -3 -18 -6z"/>
<path d="M2972 2310 c-7 -11 -8 -20 -3 -20 9 0 24 30 18 36 -1 2 -8 -6 -15
-16z"/>
<path d="M1184 2302 c4 -11 11 -45 16 -76 17 -102 49 -133 90 -84 20 24 33 30
63 30 20 0 40 4 43 9 12 20 35 8 41 -22 4 -23 10 -28 22 -23 9 4 28 9 44 12
33 5 36 -12 6 -44 l-21 -22 21 -21 c32 -32 26 -44 -18 -39 -38 3 -39 2 -43
-30 -4 -31 -3 -33 21 -27 89 22 163 135 136 208 -5 10 -18 13 -54 9 -68 -6
-113 12 -179 72 -51 47 -62 52 -106 54 -27 1 -58 4 -69 8 -15 5 -18 2 -13 -14z"/>
<path d="M2366 2278 c-24 -33 -20 -45 12 -40 25 3 28 7 24 33 -5 35 -15 37
-36 7z"/>
<path d="M2532 2271 c-9 -26 -8 -30 11 -35 35 -9 37 -8 25 24 -14 42 -24 45
-36 11z"/>
<path d="M2420 2279 c0 -8 7 -24 15 -35 11 -15 14 -16 15 -3 0 8 -7 24 -15 35
-11 15 -14 16 -15 3z"/>
<path d="M2489 2264 c-13 -15 -18 -25 -10 -22 13 4 49 48 39 48 -2 0 -15 -12
-29 -26z"/>
<path d="M2754 2266 c-10 -8 -17 -17 -14 -20 10 -9 48 5 54 20 7 18 -15 18
-40 0z"/>
<path d="M689 2208 c-7 -29 -13 -107 -14 -173 l0 -120 55 0 55 0 6 110 c3 61
9 133 14 161 7 51 7 51 -23 57 -16 3 -41 9 -55 12 -23 6 -26 3 -38 -47z"/>
<path d="M2870 2225 c0 -19 4 -35 9 -35 13 0 18 20 13 47 -7 36 -22 27 -22
-12z"/>
<path d="M927 2229 c-8 -29 2 -71 14 -63 11 7 11 55 0 72 -6 10 -10 8 -14 -9z"/>
<path d="M3238 2236 c-20 -6 -39 -13 -42 -16 -3 -3 1 -46 9 -95 8 -50 15 -118
15 -152 l0 -63 55 0 55 0 0 54 c0 100 -32 287 -48 285 -4 -1 -24 -6 -44 -13z"/>
<path d="M2388 2208 c17 -8 26 -8 34 0 9 9 4 12 -22 11 -33 0 -34 -1 -12 -11z"/>
<path d="M2490 2211 c0 -12 32 -19 54 -11 18 6 18 7 2 13 -25 10 -56 9 -56 -2z"/>
<path d="M2331 2123 c-6 -42 -10 -78 -7 -80 2 -2 19 -6 38 -9 74 -13 170 39
198 106 15 35 10 44 -19 35 -16 -5 -21 -15 -21 -41 0 -40 -9 -43 -40 -9 l-23
24 -25 -19 c-36 -29 -45 -25 -39 14 5 29 2 35 -19 45 -14 6 -26 11 -28 11 -2
0 -9 -34 -15 -77z"/>
<path d="M2423 2173 c-3 -10 -8 -22 -11 -28 -3 -5 4 -1 16 9 24 20 28 36 12
36 -6 0 -13 -8 -17 -17z"/>
<path d="M2480 2167 c0 -8 6 -20 14 -26 12 -10 13 -8 9 9 -7 25 -23 37 -23 17z"/>
<path d="M1411 2138 c-1 -16 4 -28 9 -28 12 0 12 8 0 35 -8 18 -9 17 -9 -7z"/>
<path d="M1190 2137 c0 -15 27 -43 34 -36 3 2 -4 15 -15 28 -13 16 -19 18 -19
8z"/>
<path d="M1307 2132 c-20 -22 -22 -78 -3 -110 16 -29 65 -62 93 -62 19 0 20 3
11 34 -10 32 -11 33 -44 23 -44 -13 -53 -3 -31 35 16 28 16 32 2 48 -23 26
-18 38 18 43 l32 4 -31 1 c-19 1 -37 -5 -47 -16z"/>
<path d="M2633 2132 c-8 -5 -4 -15 12 -34 21 -25 26 -26 54 -15 39 15 50 3 29
-34 -16 -28 -16 -29 3 -40 11 -6 18 -17 15 -24 -10 -26 24 -3 39 26 22 42 18
67 -14 100 -25 24 -38 29 -78 29 -26 0 -53 -4 -60 -8z"/>
<path d="M3080 2110 c0 -16 5 -30 10 -30 6 0 10 14 10 30 0 17 -4 30 -10 30
-5 0 -10 -13 -10 -30z"/>
<path d="M1464 2115 c-16 -12 -16 -14 -3 -15 9 0 22 7 29 15 16 19 0 19 -26 0z"/>
<path d="M2126 2114 c-3 -9 -6 -25 -6 -36 0 -17 3 -18 15 -8 16 13 21 60 6 60
-5 0 -12 -7 -15 -16z"/>
<path d="M1360 2105 c7 -8 20 -15 29 -15 13 1 13 3 -3 15 -26 19 -42 19 -26 0z"/>
<path d="M2620 2088 c0 -24 11 -48 22 -48 5 0 6 10 3 23 -10 30 -25 46 -25 25z"/>
<path d="M3005 2091 c-5 -10 11 -25 37 -34 21 -8 32 7 15 20 -20 16 -46 23
-52 14z"/>
<path d="M1374 2060 c-20 -8 -42 -30 -30 -30 13 0 56 24 56 32 0 9 1 9 -26 -2z"/>
<path d="M1452 2059 c5 -14 48 -32 48 -20 0 4 -12 13 -26 20 -20 9 -25 9 -22
0z"/>
<path d="M1702 2040 c-8 -20 -8 -32 0 -36 13 -8 28 14 28 44 0 32 -16 27 -28
-8z"/>
<path d="M2684 2056 c-21 -16 -16 -30 9 -20 16 6 32 34 19 34 -5 0 -17 -6 -28
-14z"/>
<path d="M937 2044 c-10 -11 -9 -52 2 -59 13 -8 24 32 14 50 -5 9 -12 12 -16
9z"/>
<path d="M1420 2023 c0 -21 3 -24 9 -14 5 8 7 20 4 28 -8 21 -13 15 -13 -14z"/>
<path d="M2575 2030 c3 -5 16 -10 28 -9 21 0 21 1 2 9 -28 12 -37 12 -30 0z"/>
<path d="M1129 1990 c24 -21 41 -26 41 -12 0 4 -15 13 -32 19 l-33 12 24 -19z"/>
<path d="M2680 2000 c8 -5 22 -10 30 -10 13 0 13 1 0 10 -8 5 -22 10 -30 10
-13 0 -13 -1 0 -10z"/>
<path d="M2395 1990 c-6 -10 45 -40 67 -40 14 1 -37 50 -52 50 -5 0 -11 -4
-15 -10z"/>
<path d="M2104 1969 c-19 -21 -19 -21 6 -18 14 2 26 12 28 22 5 23 -11 22 -34
-4z"/>
<path d="M2594 1976 c-10 -8 -16 -17 -13 -20 3 -3 14 1 25 8 10 8 16 17 13 20
-3 3 -14 -1 -25 -8z"/>
<path d="M2650 1975 c0 -11 4 -26 9 -33 7 -11 9 -11 14 1 3 8 -1 23 -8 34 -14
17 -14 17 -15 -2z"/>
<path d="M1607 1973 c-13 -12 -7 -23 12 -23 26 0 51 10 51 21 0 10 -53 12 -63
2z"/>
<path d="M731 1701 c-14 -4 -26 -12 -29 -19 -3 -9 17 -12 72 -12 78 0 98 12
50 30 -28 11 -57 11 -93 1z"/>
<path d="M796 1628 c3 -4 12 -8 20 -8 8 0 14 -6 14 -14 0 -9 -10 -13 -31 -12
-42 2 -63 -29 -35 -50 11 -8 28 -14 38 -14 27 0 58 36 58 69 0 25 -4 29 -34
33 -19 2 -32 0 -30 -4z"/>
<path d="M1312 1699 c-49 -18 -31 -29 47 -29 85 0 103 11 49 29 -35 11 -65 11
-96 0z"/>
<path d="M1584 1685 c-17 -13 -11 -14 66 -14 77 0 83 1 66 14 -11 8 -41 15
-66 15 -25 0 -55 -7 -66 -15z"/>
<path d="M1488 1633 c-15 -4 -18 -16 -18 -64 l0 -60 33 3 c32 3 32 4 34 58 1
48 -8 72 -27 69 -3 -1 -13 -3 -22 -6z"/>
<path d="M1403 1619 c9 -6 15 -15 12 -20 -4 -5 -11 -7 -16 -3 -6 3 -21 3 -35
0 -34 -9 -34 -53 1 -62 40 -10 75 19 75 61 0 32 -3 35 -27 35 -24 -1 -26 -2
-10 -11z"/>
<path d="M1625 1570 c-3 -5 -4 -14 0 -20 8 -13 35 -1 35 16 0 16 -26 19 -35 4z"/>
<path d="M2475 1680 c-4 -6 19 -10 62 -10 48 0 63 3 53 10 -20 13 -107 13
-115 0z"/>
<path d="M2590 1535 c0 -9 6 -12 15 -9 8 4 12 10 9 15 -8 14 -24 10 -24 -6z"/>
<path d="M2540 1490 c0 -5 7 -10 15 -10 8 0 15 5 15 10 0 6 -7 10 -15 10 -8 0
-15 -4 -15 -10z"/>
<path d="M1906 1605 c-5 -18 -15 -27 -36 -32 -17 -3 -30 -10 -30 -14 0 -17 49
-29 75 -19 21 8 25 16 25 50 0 46 -24 56 -34 15z"/>
<path d="M1040 1615 c0 -10 -10 -15 -34 -15 -19 0 -38 -4 -41 -10 -4 -6 8 -10
29 -10 39 0 49 -18 16 -27 -25 -7 -27 -33 -2 -33 9 0 32 9 50 20 26 16 32 26
32 55 0 31 -3 35 -25 35 -16 0 -25 -6 -25 -15z"/>
<path d="M3165 1623 c3 -8 5 -17 5 -19 0 -2 11 -4 25 -4 36 0 32 27 -5 32 -24
4 -30 1 -25 -9z"/>
<path d="M3310 1595 c0 -8 5 -15 10 -15 6 0 10 7 10 15 0 8 -4 15 -10 15 -5 0
-10 -7 -10 -15z"/>
<path d="M3310 1520 c0 -5 5 -10 10 -10 6 0 10 5 10 10 0 6 -4 10 -10 10 -5 0
-10 -4 -10 -10z"/>
<path d="M794 648 c-26 -33 -25 -38 5 -38 34 0 38 7 18 34 -11 15 -15 15 -23
4z"/>
<path d="M2030 600 l0 -60 60 0 c67 0 100 21 100 63 0 40 -29 57 -98 57 l-62
0 0 -60z"/>
<path d="M2346 628 c-16 -22 -16 -23 10 -26 34 -5 39 2 21 28 l-15 21 -16 -23z"/>
<path d="M2623 662 c-25 -3 -33 -8 -33 -23 0 -18 6 -20 62 -17 49 2 64 7 66
19 3 18 -36 27 -95 21z"/>
<path d="M2590 570 l0 -31 63 3 c59 3 62 4 62 28 0 24 -3 25 -62 28 l-63 3 0
-31z"/>
<path d="M2900 631 c-14 -28 -10 -33 24 -29 25 3 25 3 7 27 l-19 24 -12 -22z"/>
<path d="M3164 646 c-3 -7 -4 -33 -2 -57 l3 -44 57 -3 c77 -4 98 8 98 56 0 21
-5 43 -12 50 -17 17 -137 16 -144 -2z"/>
</g>
</svg>
