<?xml version="1.0" standalone="no"?>
<!DOCTYPE svg PUBLIC "-//W3C//DTD SVG 20010904//EN"
 "http://www.w3.org/TR/2001/REC-SVG-20010904/DTD/svg10.dtd">
<svg version="1.0" xmlns="http://www.w3.org/2000/svg"
 width="480.000000pt" height="520.000000pt" viewBox="0 0 480.000000 520.000000"
 preserveAspectRatio="xMidYMid meet">

<g transform="translate(0.000000,520.000000) scale(0.100000,-0.100000)"
fill="#000000" stroke="none">
<path d="M2320 5188 c-364 -78 -576 -147 -825 -270 -205 -100 -383 -219 -552
-369 -154 -137 -403 -428 -508 -594 -84 -134 -227 -430 -285 -595 -104 -290
-165 -664 -145 -894 l7 -86 2394 0 2394 0 0 49 c0 109 -22 316 -50 471 -100
551 -372 1085 -764 1500 -257 271 -634 501 -1059 645 -128 43 -548 159 -559
154 -2 -1 -23 -5 -48 -11z m40 -172 c0 -117 6 -109 -85 -121 -74 -9 -265 -61
-350 -95 -42 -17 -82 -30 -89 -30 -11 0 -76 156 -76 182 0 8 108 50 225 86 84
26 154 44 300 75 11 3 32 5 48 6 l27 1 0 -104z m195 79 c102 -23 339 -97 419
-130 l34 -15 -33 -92 c-18 -51 -37 -94 -42 -95 -6 -2 -84 21 -175 52 -91 30
-208 66 -259 78 l-94 23 -3 102 c-3 121 -15 115 153 77z m-803 -255 c15 -46
27 -88 26 -92 -2 -5 -55 -32 -118 -61 -63 -29 -168 -83 -232 -120 -64 -37
-119 -67 -121 -67 -5 0 -107 146 -107 153 0 10 122 99 200 144 116 68 270 134
304 130 15 -1 26 -22 48 -87z m1393 57 c126 -53 367 -196 404 -241 9 -11 2
-30 -40 -93 -28 -43 -57 -77 -64 -77 -7 1 -73 37 -146 81 -74 44 -172 100
-219 123 -47 24 -87 45 -89 46 -9 7 72 195 83 190 6 -2 38 -16 71 -29z m-645
-47 c386 -92 760 -276 1053 -517 462 -379 761 -881 866 -1455 22 -120 47 -398
38 -422 -6 -15 -102 -16 -983 -14 l-977 3 -15 40 c-21 56 -21 233 0 305 9 30
38 116 65 190 47 133 48 136 48 255 -1 102 -6 140 -35 255 -74 297 -48 471 92
611 94 94 264 147 388 120 62 -14 182 -70 188 -88 2 -6 -16 -24 -39 -40 -37
-24 -52 -28 -111 -27 -37 1 -68 0 -68 -3 0 -9 71 -33 97 -33 46 0 100 19 132
45 l29 25 40 -45 c54 -62 87 -164 79 -245 -10 -93 -52 -184 -118 -254 -71 -76
-133 -109 -216 -114 -78 -5 -97 -1 -156 39 -91 60 -123 160 -72 229 30 41 43
50 74 50 23 0 23 -1 8 -18 -28 -31 -20 -41 41 -53 l59 -12 -19 -49 c-22 -58
-24 -108 -4 -108 8 0 34 23 59 50 l45 50 19 -22 c25 -32 73 -68 89 -68 21 0
18 69 -4 112 l-19 36 42 4 c23 3 53 13 68 23 36 23 22 40 -49 61 l-53 15 15
34 c16 40 19 95 4 95 -20 0 -69 -30 -85 -52 -14 -19 -18 -20 -23 -8 -9 26 -81
92 -92 85 -13 -8 -13 -85 0 -119 l10 -26 -80 0 c-61 0 -80 3 -80 14 0 7 -3 27
-6 44 -6 30 -5 31 42 38 52 7 84 20 84 33 0 11 -40 28 -84 36 -20 4 -36 8 -36
9 0 0 9 30 20 64 31 98 27 101 -45 46 -47 -35 -47 -35 -62 -14 -24 34 -55 60
-66 53 -5 -3 -7 -29 -4 -59 l6 -54 -38 0 c-83 0 -93 -52 -14 -78 l41 -13 -19
-50 c-34 -88 -17 -104 49 -44 l39 34 16 -32 c9 -18 22 -39 28 -48 10 -13 7
-22 -10 -46 -32 -42 -38 -103 -16 -160 24 -61 89 -131 145 -155 l45 -19 -55
-34 c-80 -50 -129 -49 -183 5 -46 46 -57 41 -57 -27 0 -33 5 -46 26 -62 15
-12 37 -21 50 -21 31 0 30 -5 -8 -79 -27 -53 -33 -76 -36 -150 -8 -167 40
-266 177 -368 12 -9 -46 -52 -84 -63 -50 -14 -94 -7 -130 21 -47 38 -49 53 -9
93 34 34 36 40 31 81 -8 59 -35 121 -46 109 -5 -5 -21 -31 -35 -58 -32 -60
-34 -123 -6 -184 16 -36 17 -44 5 -47 -8 -3 -21 -7 -29 -9 -21 -7 -43 -45 -52
-89 l-7 -39 49 7 c63 10 79 18 101 55 16 28 21 30 59 24 60 -9 97 2 150 45
l46 37 60 -15 c50 -12 62 -19 75 -45 21 -44 55 -65 126 -80 34 -7 64 -12 65
-10 9 7 -39 94 -58 104 -20 11 -18 13 29 36 28 14 89 60 137 102 111 99 130
110 203 123 79 14 123 5 167 -33 59 -52 79 -117 55 -180 -25 -67 -126 -123
-172 -97 -23 13 -22 14 30 19 30 3 56 10 58 17 3 6 -14 24 -37 39 l-41 27 24
26 c27 29 47 63 47 81 0 15 -52 4 -102 -21 -36 -18 -37 -18 -43 1 -9 29 -54
80 -71 80 -14 0 -18 -23 -14 -87 l1 -32 -58 -3 c-43 -2 -58 -7 -58 -18 0 -13
49 -52 78 -63 8 -3 3 -15 -14 -33 -25 -27 -49 -66 -49 -78 0 -11 61 -6 83 6
12 6 28 19 35 30 19 26 29 22 37 -12 4 -16 18 -39 33 -51 25 -19 27 -19 39 -3
7 10 13 24 13 31 0 8 13 13 38 13 56 1 113 32 165 90 46 53 46 53 64 33 10
-12 48 -41 85 -66 122 -82 215 -83 294 -3 30 29 43 53 48 82 5 26 17 50 33 64
24 20 25 26 18 74 -4 28 -9 70 -10 94 -2 24 -6 46 -9 49 -21 22 -76 -62 -76
-117 0 -31 -1 -31 -32 -24 -51 13 -94 9 -124 -11 l-27 -18 29 -15 c16 -8 44
-28 62 -43 24 -22 43 -29 72 -29 36 0 40 -3 40 -25 0 -13 -14 -40 -30 -59 -58
-65 -167 -66 -258 -2 -42 29 -93 90 -155 186 -57 87 -115 123 -206 128 -61 4
-104 -3 -154 -23 -17 -7 -18 -3 -12 52 9 73 -11 151 -54 209 -56 78 -222 119
-307 76 -100 -51 -130 -123 -165 -400 -7 -51 -15 -95 -20 -97 -15 -10 -71 49
-99 105 -40 80 -57 173 -41 236 30 119 113 204 283 290 48 24 90 44 93 44 3 0
5 -15 5 -34 0 -19 3 -42 6 -51 8 -19 55 -45 85 -45 17 0 20 4 15 23 -26 89
-11 135 82 239 l61 68 17 -53 c23 -73 62 -156 91 -195 13 -17 21 -37 18 -42
-11 -17 -71 -11 -98 10 -34 27 -44 25 -52 -9 -11 -50 32 -101 85 -101 23 0 26
-5 28 -36 4 -48 23 -84 68 -123 60 -53 121 -65 188 -37 42 18 116 88 116 111
0 15 -6 16 -47 10 -63 -9 -141 -43 -154 -66 -15 -29 -39 -23 -80 21 -41 43
-55 89 -45 143 11 58 17 60 72 33 72 -36 134 -49 221 -45 69 4 86 8 141 41
l63 38 25 -25 c44 -44 28 -108 -40 -151 -26 -16 -27 -19 -10 -25 40 -16 84 -9
110 16 14 14 27 25 29 25 2 0 8 -16 14 -35 28 -102 -69 -226 -163 -208 -26 5
-27 8 -20 37 13 52 9 90 -14 137 -12 25 -22 52 -22 59 0 9 -13 2 -32 -17 -28
-28 -33 -41 -36 -95 -3 -54 -1 -67 19 -92 28 -36 76 -56 134 -56 77 0 140 48
165 126 12 36 9 137 -5 182 -6 19 -4 22 17 22 47 0 86 68 67 118 l-10 25 -23
-22 c-27 -26 -83 -43 -111 -35 -11 4 -30 15 -42 26 l-22 20 22 42 c19 35 22
57 22 156 0 132 -7 152 -79 218 -50 46 -82 62 -125 62 -25 0 -29 4 -35 38 -6
43 -22 60 -83 91 -22 11 -43 26 -46 33 -3 8 -9 2 -17 -14 -17 -35 -6 -90 26
-127 24 -29 24 -30 5 -36 -31 -9 -59 -51 -78 -114 -9 -31 -28 -67 -42 -81
l-25 -24 40 -18 c21 -10 53 -18 69 -18 l30 0 -5 -57 -5 -57 -48 -12 c-26 -7
-59 -20 -74 -29 -25 -17 -27 -17 -45 6 -33 43 -68 118 -78 170 -5 28 -14 120
-20 206 -6 86 -14 173 -19 194 l-9 39 43 0 c24 0 55 4 69 10 19 7 33 4 63 -12
l39 -21 69 21 c37 12 74 22 82 22 19 0 16 24 -5 43 -24 22 -86 47 -116 47 -22
0 -25 3 -20 28 3 15 1 39 -5 54 -12 32 -55 63 -76 54 -13 -5 -13 -8 5 -26 57
-57 23 -154 -63 -175 -36 -9 -102 23 -167 83 -53 47 -56 52 -52 91 4 40 5 41
41 41 20 0 46 7 58 15 38 27 53 131 22 151 -5 3 -22 -8 -38 -25 -16 -17 -39
-31 -50 -31 -27 0 -92 33 -111 55 -20 24 -79 51 -128 59 -79 12 -172 -50 -209
-139 -16 -41 -22 -45 -68 -56 -80 -18 -165 -69 -236 -140 -97 -96 -136 -184
-176 -397 l-8 -43 -55 41 c-113 86 -261 137 -365 126 -33 -3 -71 -9 -85 -12
-21 -6 -18 0 22 41 50 51 96 130 123 213 21 65 34 66 114 6 59 -44 104 -94
132 -144 13 -24 14 -22 20 40 9 85 -5 117 -73 168 -90 68 -222 91 -334 57 -57
-17 -129 -82 -170 -154 -27 -48 -46 -152 -37 -205 l5 -34 -50 -7 c-64 -8 -145
14 -222 60 -71 43 -93 67 -126 138 -53 118 -17 254 79 298 50 22 87 24 87 5 0
-9 -17 -16 -48 -20 -96 -13 -104 -45 -20 -81 24 -11 44 -19 45 -20 2 -1 -6
-19 -17 -40 -23 -45 -26 -95 -7 -95 8 0 33 14 55 30 23 17 44 30 46 30 2 0 17
-20 33 -45 27 -43 50 -62 61 -50 9 8 8 75 -1 110 l-8 30 73 0 c66 0 73 2 73
19 0 14 -17 29 -55 49 -30 15 -56 29 -57 31 -2 1 6 20 17 41 26 51 27 95 1 95
-10 0 -35 -11 -55 -25 -23 -15 -36 -20 -36 -12 0 20 -68 89 -82 85 -7 -3 -17
-24 -23 -49 -8 -31 -17 -45 -30 -47 -52 -8 -69 -15 -107 -50 -42 -38 -78 -106
-78 -147 0 -48 -8 -55 -45 -39 -41 17 -83 18 -121 3 l-28 -10 45 -40 c70 -63
115 -91 141 -87 18 2 30 -7 56 -45 19 -27 32 -50 30 -52 -2 -2 -28 1 -58 7
-30 6 -83 8 -117 5 -53 -5 -66 -3 -95 16 -40 27 -62 84 -48 122 11 29 7 31
-30 9 -29 -18 -60 -71 -60 -104 0 -10 11 -32 26 -49 l25 -30 -43 -38 c-91 -81
-113 -114 -142 -212 -16 -55 -20 -175 -7 -221 6 -21 0 -29 -34 -55 -93 -71
-139 -188 -116 -298 13 -65 64 -174 111 -239 16 -22 27 -45 24 -50 -13 -20
-117 14 -160 54 -20 18 -21 21 -7 61 18 53 13 99 -22 174 -25 55 -27 57 -41
38 -20 -27 -34 -82 -34 -133 0 -116 101 -217 229 -229 67 -6 81 -21 81 -85 0
-39 -6 -54 -31 -83 -57 -65 -133 -84 -180 -47 -21 18 -22 20 -6 43 25 34 22
106 -6 152 -22 36 -24 37 -39 20 -28 -32 -38 -61 -38 -108 0 -112 93 -177 210
-145 42 11 92 50 102 80 4 13 8 13 24 -2 50 -44 113 -45 158 -3 39 36 34 55
-15 55 -22 0 -50 5 -62 11 -33 17 -77 60 -93 91 -14 27 -13 28 19 42 18 7 50
28 70 46 20 18 37 27 37 22 0 -6 12 -24 26 -41 29 -35 75 -41 111 -16 22 16
22 16 -26 63 -48 46 -49 48 -61 137 -7 50 -19 110 -26 135 -20 66 -19 71 14
59 15 -6 70 -13 123 -16 l96 -6 74 -74 c96 -96 171 -134 273 -141 41 -2 88 0
105 6 26 9 32 8 40 -6 34 -64 14 -185 -45 -262 -40 -52 -118 -104 -189 -126
-47 -14 -47 -14 -41 9 3 12 9 41 13 65 4 28 10 41 18 38 34 -13 103 -17 110
-7 10 17 -34 80 -61 87 -13 3 -24 7 -24 9 0 1 23 25 51 53 71 72 51 91 -58 54
l-51 -18 -6 35 c-6 38 -31 81 -47 81 -5 0 -17 -13 -27 -29 -13 -22 -22 -27
-32 -20 -8 5 -31 9 -51 9 -70 0 -139 -74 -139 -151 0 -108 64 -200 164 -238
67 -25 121 -26 201 -6 110 29 195 99 242 200 24 53 27 72 28 161 0 92 2 102
22 118 22 16 26 14 135 -60 62 -42 124 -86 137 -98 41 -37 81 -117 81 -162 0
-76 -80 -154 -160 -154 -29 0 -90 24 -90 36 0 2 16 18 35 35 35 31 35 32 35
115 0 46 -4 84 -8 84 -16 0 -91 -59 -103 -82 -6 -12 -12 -40 -13 -63 l-1 -41
-58 4 c-58 4 -58 4 -103 -42 -24 -25 -44 -52 -44 -59 0 -8 27 -13 89 -15 83
-2 91 -1 119 23 l30 25 34 -19 c18 -11 49 -22 69 -26 148 -27 260 155 185 303
-28 54 -117 142 -194 191 l-54 34 59 22 c33 12 74 31 90 43 39 27 81 110 89
174 4 26 8 48 11 48 2 0 20 -7 40 -15 46 -19 93 -20 93 -1 0 21 -48 74 -81 92
l-29 15 34 30 c19 16 39 43 45 59 10 29 9 30 -22 30 -18 -1 -43 -7 -57 -15
-36 -21 -40 -19 -40 19 0 41 -15 86 -29 86 -14 0 -38 -48 -46 -93 -6 -30 -11
-37 -24 -31 -9 4 -35 11 -57 17 -35 8 -45 17 -63 54 -11 24 -21 45 -21 48 0 2
24 1 54 -2 30 -3 69 0 89 6 48 16 97 63 97 93 l0 23 -18 -22 c-11 -14 -41 -29
-83 -40 -79 -20 -130 -10 -182 36 l-31 29 34 20 c64 39 153 38 282 -4 64 -21
202 -163 247 -256 64 -130 54 -212 -53 -427 -80 -160 -99 -220 -104 -337 -3
-75 0 -117 13 -165 10 -35 20 -74 22 -87 l5 -22 -968 2 -969 3 3 60 c20 403
134 825 308 1138 116 208 241 372 411 538 205 201 381 323 658 458 160 78 278
124 450 175 222 66 213 65 335 36z m-1323 -255 c10 -14 31 -42 46 -63 52 -68
53 -64 -26 -132 -40 -34 -127 -116 -194 -182 -83 -81 -126 -117 -135 -112 -28
17 -128 110 -128 119 0 29 380 393 412 395 4 0 15 -11 25 -25z m2526 -47 c96
-71 327 -299 327 -321 0 -9 -32 -45 -71 -80 l-72 -66 -81 86 c-44 48 -99 103
-121 123 -74 70 -170 150 -177 150 -18 0 -5 31 43 98 28 40 55 72 60 72 6 0
47 -28 92 -62z m-2161 -199 c8 -28 8 -43 1 -50 -17 -17 -45 33 -50 89 l-4 47
20 -23 c12 -13 26 -42 33 -63z m1640 45 c53 -27 85 -92 76 -156 l-3 -26 -80
33 c-44 19 -100 37 -125 40 -102 14 -100 13 -88 46 11 31 59 73 93 82 28 7 95
-3 127 -19z m-1533 -36 c-8 -32 -50 -78 -70 -78 -21 0 -7 44 25 76 44 44 57
44 45 2z m1767 -32 c-7 -27 -55 -51 -85 -41 -12 3 -26 15 -31 26 -10 17 -7 19
22 19 18 0 47 8 63 19 32 19 40 14 31 -23z m-1921 -50 c19 -14 19 -15 -5 -26
-29 -13 -100 5 -108 28 -5 17 89 16 113 -2z m198 -43 c31 -16 31 -16 10 -26
-29 -13 -86 -1 -115 23 l-23 19 48 1 c26 0 62 -7 80 -17z m-167 -31 c-7 -22
-85 -97 -92 -89 -10 10 28 83 53 104 30 25 49 17 39 -15z m63 -40 c7 -21 11
-49 9 -63 l-3 -24 -19 28 c-10 15 -21 49 -24 75 -4 41 -3 45 10 35 8 -7 20
-30 27 -51z m-809 -40 l73 -68 -87 -123 c-87 -125 -196 -307 -196 -329 0 -18
-7 -16 -91 33 -43 25 -83 45 -89 45 -5 0 -10 5 -10 11 0 15 79 162 143 264 50
80 167 235 178 235 3 0 38 -31 79 -68z m3367 -32 c78 -98 175 -245 219 -331
l33 -67 -82 -50 -82 -51 -16 27 c-69 115 -146 233 -211 324 l-77 107 67 64
c36 36 71 63 76 60 6 -3 39 -40 73 -83z m-2171 48 c-12 -62 -68 -160 -120
-210 -80 -76 -112 -74 -100 7 17 117 117 233 203 235 21 0 23 -3 17 -32z
m-778 -32 c15 -8 38 -25 50 -39 23 -25 24 -25 4 -36 -16 -8 -27 -5 -58 18 -22
15 -48 38 -58 50 -19 21 -19 21 8 21 15 0 39 -6 54 -14z m1547 -57 c9 -16 15
-44 13 -62 l-3 -31 -18 28 c-23 34 -34 96 -19 96 7 0 19 -14 27 -31z m1014 4
l24 -16 -44 -18 c-53 -22 -89 -23 -113 -6 -18 13 -17 15 9 35 33 27 91 29 124
5z m-910 -22 c-11 -31 -48 -75 -56 -67 -10 9 6 51 27 74 29 31 41 28 29 -7z
m-1833 -102 c25 -28 10 -34 -28 -12 -25 14 -34 27 -36 52 -2 18 2 39 9 47 11
13 15 9 25 -26 7 -23 20 -50 30 -61z m1698 35 c21 -8 20 -20 0 -28 -20 -8 -94
11 -94 24 0 11 69 14 94 4z m194 -30 c29 -8 28 -22 -2 -30 -29 -7 -99 13 -91
27 7 10 59 12 93 3z m908 -56 c47 -52 37 -78 -21 -54 -36 15 -73 75 -60 96 8
13 54 -11 81 -42z m-1080 -6 c-17 -33 -44 -58 -53 -49 -10 10 18 67 41 83 26
18 32 4 12 -34z m85 -24 c7 -26 7 -44 1 -50 -16 -16 -42 32 -42 75 0 34 2 38
15 27 8 -7 20 -30 26 -52z m254 -40 c9 -39 -3 -53 -26 -32 -22 20 -43 89 -33
106 9 15 51 -37 59 -74z m111 46 c-3 -9 -6 -19 -6 -24 0 -12 -50 -70 -61 -70
-20 0 -7 41 22 75 32 36 56 47 45 19z m-1941 -4 c39 -5 120 -23 180 -41 72
-21 143 -34 204 -38 l94 -6 -52 -63 c-75 -90 -99 -148 -112 -273 -5 -57 -17
-118 -26 -136 -20 -42 -68 -83 -97 -83 -34 0 -39 -11 -14 -37 35 -37 92 -32
134 12 l33 35 50 -106 c28 -58 51 -110 51 -115 0 -16 -48 -29 -108 -29 -93 0
-194 55 -268 145 l-37 45 46 49 c69 74 91 123 91 206 0 42 -7 85 -17 108 l-16
37 35 15 c45 19 60 56 42 104 -15 39 -68 81 -103 81 l-22 0 18 -52 c21 -59 22
-77 10 -96 -6 -11 -16 -8 -46 13 -22 14 -59 31 -83 37 l-44 11 7 45 7 45 -34
-7 c-18 -3 -46 -16 -61 -27 -16 -11 -30 -19 -31 -17 -2 1 -8 12 -14 23 -6 11
-24 28 -41 38 l-31 18 -11 -28 c-6 -15 -8 -44 -5 -64 l6 -37 -55 -4 c-75 -6
-89 -22 -50 -54 17 -13 47 -29 67 -36 36 -11 37 -11 23 -38 -19 -38 -31 -110
-17 -110 6 0 31 16 56 35 l46 35 15 -28 c20 -38 51 -72 64 -72 7 0 11 24 11
64 l0 63 48 -4 c32 -3 53 0 67 10 19 15 18 16 -14 46 -18 17 -47 35 -65 39
-29 8 -30 9 -10 20 37 20 155 -23 162 -59 1 -8 -18 -46 -43 -84 -47 -72 -75
-146 -75 -198 l0 -29 -40 35 c-65 59 -133 88 -237 100 -88 11 -94 13 -101 37
-13 47 -6 183 12 224 39 87 152 176 250 196 56 11 70 11 151 0z m2596 -97 c-5
-10 -16 -26 -24 -37 -13 -18 -15 -18 -40 -1 -15 9 -27 21 -27 26 0 13 39 28
73 28 23 1 26 -2 18 -16z m118 -7 c112 -59 152 -216 86 -346 l-24 -48 -59 24
c-33 13 -89 27 -125 31 l-65 8 29 34 29 35 22 -21 c26 -23 61 -43 77 -43 16 0
13 45 -4 87 -20 48 -20 50 21 58 20 3 48 18 63 33 l26 26 -40 12 c-22 7 -54
13 -72 13 -31 1 -32 2 -21 31 5 17 7 42 4 55 -8 30 10 33 53 11z m-2926 -14
c22 -24 30 -73 17 -92 -17 -24 -50 23 -50 71 0 43 9 48 33 21z m2011 12 c25
-9 19 -21 -16 -33 -34 -12 -98 -5 -98 10 0 21 79 37 114 23z m192 -8 c17 -13
17 -15 3 -21 -26 -10 -102 -1 -106 12 -8 23 74 30 103 9z m627 -71 c-10 -21
-22 -36 -28 -34 -17 7 -8 56 16 91 l24 33 3 -26 c2 -15 -5 -44 -15 -64z
m-2439 31 c20 -32 20 -55 -1 -78 -25 -28 -33 -22 -33 26 0 25 -4 56 -10 71 -9
23 -8 25 9 16 10 -6 26 -21 35 -35z m-254 29 c0 -35 -64 -115 -91 -115 -22 0
-5 46 30 81 34 35 61 49 61 34z m2624 -70 c8 -16 12 -33 9 -39 -9 -14 -73 60
-73 84 0 20 1 20 25 3 13 -10 31 -31 39 -48z m-728 -9 c-16 -41 -51 -84 -61
-75 -10 11 18 83 41 106 34 34 40 23 20 -31z m92 4 c22 -34 30 -80 12 -80 -15
0 -60 73 -60 98 0 31 19 24 48 -18z m567 -2 c6 -24 4 -28 -14 -28 -22 0 -25
10 -15 48 8 27 20 19 29 -20z m-1881 -78 c47 -92 61 -150 59 -250 -1 -103 -18
-168 -55 -207 -32 -34 -51 -29 -102 27 -67 76 -90 143 -91 265 0 84 4 109 24
155 13 30 38 70 55 88 l31 33 28 -33 c16 -18 39 -53 51 -78z m-1422 42 c35
-21 75 -43 90 -50 l28 -12 -26 -57 c-53 -116 -74 -170 -115 -298 -23 -71 -44
-132 -45 -134 -3 -3 -182 38 -196 46 -9 4 30 143 72 258 31 86 119 285 126
285 2 0 32 -17 66 -38z m4073 -120 c61 -135 121 -306 126 -361 l4 -34 -88 -30
c-49 -16 -89 -27 -91 -26 -1 2 -24 69 -50 149 -26 80 -68 194 -93 253 -25 59
-43 110 -40 113 3 3 38 25 78 49 65 39 75 43 86 29 6 -9 37 -73 68 -142z
m-3496 127 c31 -18 33 -22 18 -31 -31 -17 -117 12 -117 39 0 20 61 15 99 -8z
m2976 2 c18 -7 17 -9 -12 -24 -34 -18 -80 -22 -101 -8 -11 6 -11 10 0 18 28
22 76 28 113 14z m-2775 -54 l35 -22 -37 -3 c-36 -3 -98 20 -98 37 0 28 43 23
100 -12z m2585 23 c9 -14 -38 -30 -86 -30 -26 0 -38 4 -34 11 16 25 107 40
120 19z m-2740 -42 c-4 -13 -22 -39 -41 -58 -29 -30 -34 -32 -34 -15 0 31 48
94 73 95 5 0 5 -10 2 -22z m66 -50 c16 -62 7 -80 -19 -38 -26 42 -31 110 -7
90 8 -7 20 -30 26 -52z m1009 9 c0 -47 -12 -73 -29 -63 -14 9 -14 44 0 84 14
42 29 31 29 -21z m1693 18 c-3 -38 -32 -80 -45 -67 -8 8 -6 25 6 57 19 49 42
55 39 10z m97 -52 l0 -26 -24 22 c-27 25 -49 75 -38 86 12 12 62 -54 62 -82z
m-2532 -28 c5 -74 -17 -131 -73 -190 -46 -49 -55 -45 -55 25 0 68 19 122 68
198 43 64 54 58 60 -33z m838 10 c-18 -27 -62 -53 -72 -42 -9 9 15 37 51 58
36 23 43 17 21 -16z m-187 -5 c35 -18 58 -46 47 -58 -9 -8 -70 18 -93 40 -44
41 -19 51 46 18z m1197 -90 c-1 -38 -2 -70 -4 -70 -2 0 -12 5 -23 10 -13 8
-19 21 -19 48 0 36 22 82 39 82 4 0 7 -31 7 -70z m-1253 50 c7 -6 19 -16 29
-23 14 -11 13 -14 -12 -34 l-28 -23 -4 45 c-3 49 -3 50 15 35z m216 -54 c32
-17 57 -44 48 -52 -17 -18 -97 29 -97 56 0 14 16 12 49 -4z m1703 -12 l82 -26
-39 -21 c-79 -40 -224 -31 -289 18 -24 19 -19 23 41 40 72 20 114 18 205 -11z
m-1812 6 c0 -24 -101 -92 -116 -77 -9 9 27 57 55 72 30 17 61 19 61 5z m-1035
-33 c17 -8 55 -38 85 -66 l55 -50 -51 -1 c-75 0 -148 25 -206 73 -77 63 -75
71 13 65 41 -3 88 -12 104 -21z m1079 7 c9 -24 7 -63 -5 -86 -9 -17 -13 -18
-20 -7 -10 16 -12 93 -2 102 11 11 20 8 27 -9z m603 -4 c14 -11 36 -20 49 -20
27 0 32 -15 8 -24 -45 -17 -75 -3 -88 42 -9 27 -2 28 31 2z m-1871 -62 c64
-99 92 -162 100 -224 12 -100 -42 -213 -116 -244 -17 -7 -32 -11 -34 -9 -68
86 -116 200 -123 294 -7 99 9 149 67 207 26 27 50 48 53 48 3 0 27 -33 53 -72z
m2580 17 c16 -8 37 -15 47 -15 15 0 16 -3 7 -20 -15 -28 -54 -25 -79 6 -35 45
-26 56 25 29z m-1872 -22 c-8 -37 -58 -83 -89 -83 -32 0 -32 16 0 24 13 3 39
24 56 46 18 22 34 40 36 40 2 0 1 -12 -3 -27z m506 5 c0 -12 5 -36 12 -55 11
-30 10 -35 -18 -64 -16 -17 -41 -37 -55 -44 -28 -15 -129 -32 -129 -21 0 3 14
28 30 55 17 26 35 63 41 80 8 22 23 37 52 50 55 25 67 25 67 -1z m2166 -23
c-17 -27 -45 -32 -77 -15 -27 15 -23 30 9 30 15 1 38 7 52 15 31 17 38 3 16
-30z m-116 -68 c0 -28 -26 -67 -45 -67 -12 0 -10 7 5 33 11 17 20 40 20 50 0
10 5 15 10 12 6 -3 10 -16 10 -28z m-842 4 l34 -17 -29 -18 c-15 -10 -38 -30
-50 -44 l-21 -25 -51 52 c-49 50 -50 52 -28 61 37 15 110 10 145 -9z m-168
-143 c0 -5 -11 -8 -24 -8 -14 0 -37 -5 -52 -10 -15 -6 -29 -8 -31 -6 -10 10
18 73 49 111 l32 39 13 -60 c7 -32 12 -62 13 -66z m258 75 c19 -29 42 -86 42
-108 0 -10 -12 -9 -47 3 -27 8 -54 17 -61 18 -9 3 -7 13 8 36 11 18 20 43 20
56 0 30 15 28 38 -5z m-183 -72 c6 -26 4 -32 -6 -29 -22 7 -59 68 -59 97 l0
26 29 -30 c16 -17 32 -45 36 -64z m101 24 c-15 -23 -76 -63 -76 -50 0 17 33
66 57 85 25 19 28 20 31 5 2 -9 -4 -27 -12 -40z m497 5 c-60 -54 -134 -50 -80
4 20 20 36 26 69 26 l43 -1 -32 -29z m163 -15 c17 -41 19 -111 2 -121 -15 -9
-48 32 -48 60 0 26 19 96 26 96 3 0 12 -16 20 -35z m-3691 -9 c59 -15 89 -27
87 -36 -25 -107 -57 -473 -47 -522 l7 -28 -110 0 -109 0 -6 73 c-12 165 40
537 76 537 7 0 52 -11 102 -24z m315 -42 c13 -38 5 -124 -10 -124 -18 0 -33
45 -33 96 0 82 21 96 43 28z m4099 -51 c30 -139 42 -234 44 -375 l2 -123 -96
-3 -96 -3 -6 123 c-6 112 -38 365 -52 409 -5 15 7 22 72 42 43 14 85 25 94 26
12 1 21 -22 38 -96z m-1527 36 c17 -9 18 -13 7 -20 -31 -19 -118 -1 -104 22 8
13 72 11 97 -2z m221 -11 c38 -15 17 -28 -43 -27 -49 0 -107 24 -80 32 8 3 22
8 30 11 18 6 54 0 93 -16z m-312 -31 l56 -23 -13 -34 c-13 -37 -18 -80 -9 -80
13 0 72 34 94 54 20 17 25 18 29 6 7 -20 67 -80 81 -80 9 0 13 11 13 40 1 3
-2 24 -6 46 l-6 42 38 4 c20 3 45 8 55 12 45 20 -3 -106 -66 -172 -66 -69
-194 -112 -290 -98 -80 12 -80 12 -57 161 11 72 20 133 20 138 0 9 -3 10 61
-16z m135 -20 c-6 -25 -52 -77 -68 -77 -19 0 3 55 33 83 34 32 44 30 35 -6z
m84 -39 c13 -26 21 -50 17 -54 -13 -13 -56 39 -63 75 -10 48 14 37 46 -21z
m-1870 -28 c6 -23 8 -51 4 -62 l-7 -22 -18 23 c-19 23 -24 56 -13 85 10 27 23
18 34 -24z m2907 -117 c-14 -14 -16 -13 -27 7 -15 28 -7 115 12 138 11 13 14
4 22 -57 7 -60 6 -75 -7 -88z m-3265 81 c34 -37 23 -52 -20 -30 -30 15 -46 55
-34 84 4 11 7 10 15 -4 5 -11 23 -33 39 -50z m272 50 c9 -3 16 -11 16 -18 0
-7 -18 -10 -55 -8 -49 3 -55 2 -55 -16 0 -11 14 -35 30 -52 30 -33 31 -33 12
-54 -22 -24 -42 -60 -42 -75 0 -17 83 -13 108 5 27 19 24 22 41 -41 7 -27 15
-58 18 -67 6 -22 -16 -23 -70 -4 -62 23 -119 68 -138 111 -35 76 -19 173 33
209 23 16 73 21 102 10z m1356 -85 c0 -26 -33 -79 -51 -79 -26 0 -16 100 14
138 8 11 13 9 23 -10 8 -13 13 -35 14 -49z m-1130 42 c0 -14 -52 -49 -84 -57
-22 -5 -28 -4 -24 7 11 33 108 77 108 50z m-220 -23 c19 -13 35 -29 38 -35 7
-23 -44 -14 -72 12 -49 45 -24 62 34 23z m2195 -58 c16 -31 20 -80 7 -80 -26
0 -62 76 -47 99 11 18 24 12 40 -19z m721 7 c37 -32 27 -62 -18 -53 -37 7
-101 53 -93 67 12 19 83 10 111 -14z m-2894 -58 c-32 -29 -78 -47 -89 -35 -11
11 39 56 71 65 46 12 53 1 18 -30z m598 -4 c0 -35 -6 -52 -25 -70 -40 -41 -60
-29 -49 30 7 40 39 85 60 85 10 0 14 -13 14 -45z m1720 34 c0 -20 -62 -69 -86
-69 -22 0 -23 2 -14 21 20 36 100 75 100 48z m-2150 -21 c45 -31 51 -51 13
-43 -42 10 -67 24 -81 46 -11 17 -9 19 11 19 13 0 39 -10 57 -22z m-920 -66
c0 -27 -17 -62 -30 -62 -4 0 -14 15 -20 34 -9 28 -8 41 6 73 l16 38 14 -30 c7
-16 13 -40 14 -53z m824 52 c9 -24 7 -102 -3 -108 -12 -8 -31 78 -24 105 6 23
19 25 27 3z m2064 -38 c14 -14 14 -16 -2 -22 -21 -8 -88 17 -94 35 -6 19 75 8
96 -13z m-2515 -66 c16 0 17 -3 7 -15 -30 -36 -120 5 -120 54 0 5 21 -2 47
-15 25 -13 55 -24 66 -24z m2693 19 c14 -11 13 -14 -6 -21 -22 -8 -72 11 -86
33 -10 16 71 5 92 -12z m-470 -33 c19 -19 34 -39 34 -46 0 -24 -117 12 -135
40 -13 21 4 40 36 40 22 0 41 -10 65 -34z m-532 8 c9 -23 -10 -51 -38 -58 -13
-3 -31 -9 -40 -12 -11 -4 -16 -1 -16 12 1 25 22 51 51 63 33 13 36 13 43 -5z
m836 7 c0 -18 -41 -60 -70 -69 -42 -15 -40 7 5 47 34 30 65 40 65 22z m74 -13
c17 -24 22 -98 7 -98 -19 0 -41 45 -41 82 0 43 12 48 34 16z m-1753 2 c49 -27
-13 -74 -78 -60 -19 5 -37 11 -40 13 -9 10 9 29 41 43 38 16 52 17 77 4z"/>
<path d="M2256 4784 c-8 -20 1 -34 20 -34 20 0 30 30 13 41 -20 12 -26 11 -33
-7z"/>
<path d="M2463 4784 c-3 -8 -1 -20 6 -27 14 -14 47 15 37 32 -10 16 -36 13
-43 -5z"/>
<path d="M2572 4778 c-26 -26 -2 -64 30 -47 22 12 24 45 2 53 -20 8 -18 8 -32
-6z"/>
<path d="M2140 4755 c0 -22 4 -26 23 -23 14 2 22 10 22 23 0 13 -8 21 -22 23
-19 3 -23 -1 -23 -23z"/>
<path d="M2360 4754 c0 -20 19 -27 36 -13 17 14 12 22 -16 24 -11 1 -20 -4
-20 -11z"/>
<path d="M2045 4740 c3 -5 10 -10 16 -10 5 0 9 5 9 10 0 6 -7 10 -16 10 -8 0
-12 -4 -9 -10z"/>
<path d="M2220 4695 c0 -8 7 -15 15 -15 8 0 15 7 15 15 0 8 -7 15 -15 15 -8 0
-15 -7 -15 -15z"/>
<path d="M2398 4693 c-14 -13 -20 -14 -32 -4 -24 20 -32 -8 -8 -31 16 -16 23
-18 41 -9 13 7 21 21 21 36 0 30 -1 30 -22 8z"/>
<path d="M2500 4690 c0 -11 7 -20 15 -20 8 0 15 9 15 20 0 11 -7 20 -15 20 -8
0 -15 -9 -15 -20z"/>
<path d="M1875 4680 c-9 -15 43 -36 56 -23 6 6 8 16 5 22 -9 14 -53 14 -61 1z"/>
<path d="M2861 4671 c-8 -5 -11 -16 -8 -25 6 -15 9 -15 32 0 14 9 25 20 25 25
0 12 -31 11 -49 0z"/>
<path d="M1984 4645 c3 -9 -1 -18 -9 -21 -8 -4 -12 -10 -9 -15 6 -11 51 -12
57 -1 9 14 -12 52 -29 52 -10 0 -14 -5 -10 -15z"/>
<path d="M2055 4643 c18 -43 17 -50 -9 -57 -14 -3 -26 -10 -26 -16 0 -16 37
-21 64 -9 32 15 35 50 6 79 -25 25 -45 26 -35 3z"/>
<path d="M2762 4648 c-17 -17 -15 -31 9 -46 16 -11 24 -11 36 -1 13 12 13 14
-2 25 -9 7 -14 17 -10 23 9 15 -18 14 -33 -1z"/>
<path d="M2682 4625 c-7 -14 -12 -32 -12 -40 0 -27 71 -48 85 -25 3 5 -6 15
-20 22 -15 7 -24 17 -20 25 3 7 8 20 11 28 11 27 -32 17 -44 -10z"/>
<path d="M2141 4597 c5 -17 8 -31 6 -32 -1 -1 -13 -8 -26 -15 -23 -12 -23 -14
-7 -26 18 -13 70 -3 81 17 10 15 -22 76 -43 81 -18 5 -19 3 -11 -25z"/>
<path d="M2397 4613 c-13 -13 -19 -14 -29 -5 -18 18 -28 14 -28 -12 0 -35 25
-52 55 -38 19 9 25 19 25 42 0 35 0 35 -23 13z"/>
<path d="M2623 4622 c-16 -2 -25 -14 -32 -40 -6 -20 -9 -37 -8 -38 1 -1 16 -9
33 -17 27 -14 34 -14 50 -2 11 8 14 15 8 15 -5 0 -18 6 -28 13 -14 10 -15 17
-6 41 12 33 12 33 -17 28z"/>
<path d="M2225 4561 c5 -24 1 -32 -21 -49 l-28 -19 23 -8 c12 -4 36 -1 53 6
26 11 29 16 24 43 -6 29 -29 56 -49 56 -5 0 -6 -13 -2 -29z"/>
<path d="M2524 4582 c-6 -4 -15 -21 -21 -38 -10 -29 -9 -32 23 -49 32 -17 64
-15 64 4 0 5 -9 13 -21 16 -18 6 -20 12 -14 41 6 34 -5 44 -31 26z"/>
<path d="M2316 4513 c5 -26 3 -33 -9 -33 -25 0 -40 -35 -22 -50 9 -7 13 -21
10 -31 -5 -14 -2 -17 9 -13 9 3 16 10 16 15 0 5 7 9 16 9 14 0 15 -33 8 -319
l-7 -319 22 -12 c13 -6 24 -10 27 -8 2 3 12 40 21 84 19 84 20 177 5 409 -7
110 -6 133 6 148 15 16 17 16 40 -5 l24 -23 -7 25 c-4 14 -23 39 -42 55 -26
23 -33 35 -27 49 6 15 4 18 -8 14 -9 -4 -21 -1 -27 5 -16 16 -24 2 -12 -21 8
-15 6 -23 -9 -37 -11 -10 -23 -15 -28 -10 -4 4 -1 10 6 12 17 6 15 45 -3 69
-14 18 -14 17 -9 -13z"/>
<path d="M2444 4506 c-5 -13 -2 -21 10 -28 10 -5 21 -19 26 -31 8 -21 9 -20 9
6 1 15 -4 27 -9 27 -6 0 -15 10 -19 23 -8 20 -10 21 -17 3z"/>
<path d="M2160 4431 c0 -5 10 -15 22 -23 20 -13 21 -18 10 -42 -13 -29 -13
-30 21 -17 34 13 44 47 21 72 -17 19 -74 27 -74 10z"/>
<path d="M2525 4416 c-17 -12 -18 -17 -7 -40 12 -26 54 -51 60 -35 2 4 -2 17
-8 28 -8 17 -7 23 10 33 11 7 20 16 20 20 0 13 -55 9 -75 -6z"/>
<path d="M2070 4408 l-25 -9 28 -17 c15 -9 25 -22 22 -29 -3 -7 -8 -20 -11
-28 -12 -29 31 -16 50 15 14 25 15 34 5 46 -21 25 -43 32 -69 22z"/>
<path d="M2643 4398 c-26 -12 -28 -26 -12 -62 11 -22 47 -42 58 -30 3 2 -3 17
-12 33 -16 27 -16 28 9 40 27 12 24 31 -4 30 -9 0 -27 -5 -39 -11z"/>
<path d="M1989 4369 c-12 -7 -12 -10 0 -18 8 -5 11 -16 6 -30 -5 -17 -3 -20
12 -14 22 8 43 35 37 45 -11 17 -40 26 -55 17z"/>
<path d="M2729 4354 c-17 -20 -1 -48 32 -52 21 -4 22 -2 9 13 -12 15 -12 18 4
27 15 8 16 12 5 19 -21 13 -35 11 -50 -7z"/>
<path d="M1889 4310 l-24 -19 23 -1 c28 0 62 17 62 30 0 17 -37 11 -61 -10z"/>
<path d="M2810 4315 c0 -9 9 -15 24 -15 30 0 42 15 20 24 -27 10 -44 7 -44 -9z"/>
<path d="M2327 3299 c-4 -112 -5 -205 -3 -207 9 -9 57 110 67 167 14 75 2 145
-35 205 l-23 38 -6 -203z"/>
<path d="M40 2210 c0 -20 7 -20 2360 -20 2353 0 2360 0 2360 20 0 20 -7 20
-2360 20 -2353 0 -2360 0 -2360 -20z"/>
<path d="M133 2106 c-20 -9 -35 -26 -44 -50 -8 -23 -19 -36 -31 -36 -13 0 -18
-8 -18 -25 0 -18 5 -25 20 -25 19 0 20 -7 20 -115 0 -108 -1 -115 -20 -115
-13 0 -20 -7 -20 -20 0 -18 7 -20 60 -20 53 0 60 2 60 20 0 13 -7 20 -20 20
-19 0 -20 7 -20 115 l0 115 145 0 146 0 -3 -72 c-3 -70 -4 -73 -37 -95 -43
-29 -99 -30 -129 -3 -58 54 12 125 96 96 18 -6 22 -4 22 12 0 24 -18 32 -74
32 -59 0 -106 -43 -106 -98 0 -87 100 -124 213 -77 12 5 17 2 17 -9 0 -9 -7
-16 -15 -16 -8 0 -15 -9 -15 -20 0 -18 7 -20 65 -20 58 0 65 2 65 19 0 14 -8
21 -27 23 l-28 3 0 110 0 110 28 3 c21 3 27 9 27 28 0 19 -5 24 -24 24 -18 0
-25 7 -29 30 -10 46 -53 62 -182 67 -81 3 -118 0 -142 -11z m242 -35 c16 -9
31 -25 33 -34 3 -15 -11 -17 -143 -17 -138 0 -145 1 -136 18 16 30 40 45 84
53 56 10 125 1 162 -20z"/>
<path d="M1150 2102 c-24 -11 -38 -27 -45 -49 -6 -22 -15 -33 -27 -33 -13 0
-18 -8 -18 -25 0 -18 5 -25 20 -25 19 0 20 -7 20 -115 0 -108 -1 -115 -20
-115 -13 0 -20 -7 -20 -20 0 -19 5 -21 57 -18 46 2 59 7 61 21 2 12 -3 17 -17
17 -20 0 -21 5 -21 115 l0 115 145 0 145 0 0 -64 c0 -61 -2 -66 -35 -95 -41
-35 -95 -42 -133 -15 -57 40 9 129 78 106 36 -13 53 4 25 25 -28 19 -92 16
-125 -7 -66 -47 -60 -124 13 -161 44 -23 99 -21 150 6 25 13 27 12 27 -6 0
-13 -7 -19 -21 -19 -14 0 -19 -5 -17 -17 3 -15 16 -19 71 -21 62 -3 67 -1 67
18 0 16 -6 20 -30 20 l-30 0 0 115 0 115 30 0 c25 0 30 4 30 25 0 21 -5 25
-30 25 -22 0 -28 4 -23 16 9 25 -35 62 -89 73 -78 17 -197 14 -238 -7z m245
-31 c16 -9 31 -25 33 -34 3 -15 -11 -17 -143 -17 -138 0 -145 1 -136 18 16 30
40 45 84 53 56 10 125 1 162 -20z"/>
<path d="M1652 2100 c-30 -14 -47 -29 -55 -50 -7 -18 -19 -30 -29 -30 -13 0
-18 -8 -18 -25 0 -18 5 -25 20 -25 19 0 20 -7 20 -115 0 -110 -1 -115 -21
-115 -14 0 -19 -5 -17 -17 3 -15 14 -18 68 -18 54 0 65 3 68 18 2 12 -3 17
-17 17 -20 0 -21 5 -21 115 l0 115 140 0 140 0 0 -35 0 -35 -104 0 c-101 0
-105 -1 -125 -26 -28 -36 -26 -50 9 -86 27 -26 36 -30 68 -25 46 8 75 41 70
79 -4 27 -3 28 39 28 l43 0 0 -65 c0 -63 -1 -65 -25 -65 -18 0 -25 -5 -25 -20
0 -18 7 -20 60 -20 52 0 60 2 60 19 0 10 -9 21 -20 24 -18 5 -20 14 -20 116 0
104 1 111 20 111 15 0 20 7 20 25 0 18 -5 25 -20 25 -13 0 -20 7 -20 18 0 26
-38 58 -85 71 -65 18 -174 13 -223 -9z m228 -32 c79 -41 66 -48 -90 -48 -129
0 -141 2 -138 18 9 51 150 69 228 30z m-66 -213 c9 -23 -4 -45 -30 -51 -45
-12 -79 21 -54 51 16 20 76 20 84 0z"/>
<path d="M3198 2104 c-23 -10 -42 -28 -53 -50 -9 -19 -22 -34 -30 -34 -9 0
-15 -10 -15 -25 0 -16 6 -25 15 -25 12 0 15 -19 15 -115 0 -96 -3 -115 -15
-115 -8 0 -15 -9 -15 -20 0 -18 7 -20 60 -20 53 0 60 2 60 20 0 13 -7 20 -20
20 -19 0 -20 7 -20 115 l0 115 130 0 c109 0 130 -2 130 -15 0 -11 -11 -15 -37
-15 -95 -1 -163 -40 -163 -95 0 -13 13 -39 29 -58 21 -23 27 -37 21 -48 -5 -7
-7 -23 -4 -34 18 -58 73 -72 122 -30 29 24 29 24 47 5 27 -30 43 -9 21 26 -18
26 -17 26 15 53 28 24 31 29 20 49 -15 29 -54 44 -89 36 -38 -9 -52 -23 -52
-50 0 -30 -8 -30 -51 -1 -39 26 -50 64 -23 84 12 8 50 13 111 13 l93 0 0 40
c0 33 3 40 20 40 15 0 20 7 20 25 0 17 -6 25 -17 25 -10 0 -25 13 -35 29 -28
50 -60 63 -161 68 -69 2 -101 -1 -129 -13z m216 -48 c70 -29 53 -36 -90 -36
-86 0 -134 4 -128 9 40 40 153 54 218 27z m50 -242 c24 -9 19 -33 -10 -44 -32
-13 -31 -13 -38 6 -6 16 9 44 24 44 5 0 15 -3 24 -6z m-70 -82 c8 -14 -24 -52
-44 -52 -19 0 -36 32 -25 50 7 12 62 13 69 2z"/>
<path d="M2240 2085 c0 -11 11 -15 43 -15 33 0 49 -6 67 -25 l23 -25 -146 0
-147 0 0 -25 c0 -23 4 -25 45 -25 52 0 74 -24 54 -61 -9 -18 -18 -21 -60 -17
-45 5 -49 3 -49 -16 0 -39 43 -110 73 -120 26 -10 97 0 140 19 13 5 17 2 17
-14 0 -12 -6 -21 -15 -21 -8 0 -15 -9 -15 -20 0 -17 7 -20 50 -20 42 0 50 3
50 19 0 10 -7 22 -15 25 -13 5 -15 24 -13 113 l3 108 53 3 52 3 0 -115 c0 -96
-3 -116 -15 -116 -8 0 -15 -9 -15 -20 0 -17 7 -20 50 -20 43 0 50 3 50 20 0
11 -7 20 -15 20 -12 0 -15 19 -15 115 0 96 3 115 15 115 9 0 15 9 15 25 0 22
-4 25 -37 25 -28 0 -48 9 -84 40 -43 36 -53 40 -103 40 -43 0 -56 -3 -56 -15z
m60 -190 c0 -66 -2 -76 -22 -89 -69 -42 -168 -17 -168 43 0 6 17 11 38 11 55
0 77 19 77 69 0 41 0 41 37 41 l38 0 0 -75z"/>
<path d="M560 1995 c0 -24 3 -25 59 -25 59 0 86 -12 55 -24 -9 -3 -33 -6 -53
-6 -59 0 -95 -58 -56 -90 9 -8 13 -21 9 -35 -15 -59 57 -97 143 -76 26 7 58
19 71 27 20 13 22 13 22 -6 0 -11 -4 -20 -10 -20 -5 0 -10 -9 -10 -20 0 -17 7
-20 50 -20 43 0 50 3 50 20 0 11 -7 20 -15 20 -12 0 -15 19 -15 115 l0 115 45
0 45 0 0 -115 c0 -96 -3 -115 -15 -115 -8 0 -15 -9 -15 -20 0 -18 7 -20 55
-20 48 0 55 2 55 20 0 11 -7 20 -15 20 -12 0 -15 19 -15 115 0 96 3 115 15
115 9 0 15 9 15 25 l0 25 -235 0 -235 0 0 -25z m250 -100 l0 -75 -37 -24 c-45
-30 -84 -40 -117 -32 -49 12 -33 66 20 66 15 0 24 6 24 15 0 11 -11 15 -41 15
-22 0 -50 5 -61 11 -21 11 -21 12 -3 25 11 8 44 14 77 14 58 0 58 0 58 30 0
28 2 30 40 30 l40 0 0 -75z"/>
<path d="M2610 1996 c0 -23 5 -25 47 -28 41 -3 50 -7 70 -37 33 -49 30 -93 -9
-126 -23 -20 -38 -25 -57 -20 -53 13 -69 54 -31 77 19 12 28 38 13 38 -5 0
-23 -9 -40 -20 -59 -36 -34 -111 41 -126 105 -19 175 77 132 181 l-15 35 45 0
44 0 0 -110 c0 -89 -3 -112 -15 -116 -8 -4 -15 -15 -15 -26 0 -17 6 -19 52
-16 41 2 54 7 56 21 2 12 -3 17 -17 17 -20 0 -21 5 -21 115 l0 115 50 0 50 0
0 -115 c0 -96 -3 -115 -15 -115 -8 0 -15 -9 -15 -20 0 -18 7 -20 55 -20 48 0
55 2 55 20 0 11 -4 20 -10 20 -6 0 -10 45 -10 115 0 70 4 115 10 115 6 0 10
11 10 25 l0 25 -230 0 -230 0 0 -24z"/>
<path d="M3600 1995 c0 -25 1 -25 80 -25 l80 0 0 -55 c0 -46 -4 -60 -24 -80
-31 -30 -70 -41 -102 -26 -54 24 -13 91 56 91 39 0 36 21 -5 31 -55 15 -125
-35 -125 -89 0 -13 13 -37 29 -53 33 -33 88 -39 131 -14 34 19 40 18 40 -6 0
-12 -8 -23 -20 -26 -11 -3 -20 -14 -20 -24 0 -17 8 -19 60 -19 53 0 60 2 60
20 0 13 -7 20 -20 20 -17 0 -20 7 -20 49 0 44 4 52 30 71 61 43 140 35 140
-15 0 -30 -35 -55 -78 -55 -49 0 -36 -24 15 -28 83 -6 136 83 81 136 -41 38
-76 37 -170 -3 -16 -6 -18 -1 -18 34 l0 41 140 0 140 0 0 -115 c0 -108 -1
-115 -20 -115 -13 0 -20 -7 -20 -20 0 -18 7 -20 60 -20 52 0 60 2 60 19 0 10
-9 21 -20 24 -18 5 -20 14 -20 116 0 104 1 111 20 111 15 0 20 7 20 25 l0 25
-280 0 -280 0 0 -25z"/>
<path d="M4250 1995 c0 -22 4 -25 34 -25 48 0 65 -8 81 -41 19 -36 19 -41 -5
-67 -27 -29 -85 -30 -100 -2 -9 17 -50 29 -50 15 0 -3 14 -33 31 -67 20 -39
27 -64 20 -66 -6 -2 -11 -12 -11 -23 0 -17 8 -19 60 -19 53 0 60 2 60 20 0 14
-7 20 -23 20 -16 0 -28 9 -35 25 -16 35 -16 35 16 35 30 0 92 34 92 50 0 5 20
10 45 10 l45 0 0 -60 c0 -47 -3 -60 -15 -60 -8 0 -15 -9 -15 -20 0 -18 7 -20
55 -20 47 0 55 3 55 19 0 10 -9 21 -20 24 -18 5 -20 14 -20 112 0 98 2 107 20
112 13 3 20 14 20 29 l0 24 -170 0 -170 0 0 -25z m260 -65 c0 -40 0 -40 -39
-40 -32 0 -41 4 -47 23 -3 12 -13 30 -22 40 -14 16 -11 17 46 17 l62 0 0 -40z"/>
<path d="M4652 1934 c-33 -23 -29 -60 8 -79 61 -31 117 28 71 74 -25 25 -49
27 -79 5z m58 -29 c15 -17 5 -35 -20 -35 -22 0 -33 23 -17 39 15 15 22 14 37
-4z"/>
<path d="M4636 1791 c-14 -16 -15 -23 -6 -41 23 -43 80 -45 107 -3 14 22 14
25 -2 43 -23 26 -76 26 -99 1z m72 -24 c4 -20 -25 -34 -40 -19 -15 15 -1 44
19 40 10 -2 19 -11 21 -21z"/>
<path d="M40 1565 l0 -25 2360 0 2360 0 0 25 0 25 -2360 0 -2360 0 0 -25z"/>
<path d="M40 1320 l0 -50 495 0 495 0 0 50 0 50 -495 0 -495 0 0 -50z"/>
<path d="M1260 1320 l0 -50 490 0 490 0 0 50 0 50 -490 0 -490 0 0 -50z"/>
<path d="M2480 1320 l0 -50 404 0 403 0 39 -49 c104 -130 276 -331 284 -331 9
0 34 27 204 228 l129 152 408 0 409 0 0 50 0 50 -467 0 -468 0 -55 -71 c-105
-136 -152 -194 -158 -196 -4 -2 -54 58 -112 132 l-105 134 -457 0 -458 1 0
-50z"/>
<path d="M40 1175 l0 -45 140 0 140 0 0 -170 0 -170 -140 0 -140 0 0 -50 0
-50 230 0 230 0 0 265 0 265 -230 0 -230 0 0 -45z"/>
<path d="M550 955 l0 -265 240 0 240 0 0 50 0 50 -155 0 -155 0 0 170 0 170
155 0 155 0 0 45 0 45 -240 0 -240 0 0 -265z"/>
<path d="M1260 1175 l0 -45 145 0 145 0 0 -170 0 -170 -144 0 -144 0 -4 -50
-3 -50 233 0 232 0 0 265 0 265 -230 0 -230 0 0 -45z"/>
<path d="M1780 955 l0 -265 230 0 230 0 0 50 0 50 -150 0 -150 0 0 170 0 170
150 0 150 0 0 45 0 45 -230 0 -230 0 0 -265z"/>
<path d="M2480 1175 l0 -45 130 0 130 0 0 -170 0 -170 -130 0 -130 0 0 -50 0
-50 220 0 220 0 0 265 0 265 -220 0 -220 0 0 -45z"/>
<path d="M2960 955 l0 -265 190 0 190 0 0 50 0 50 -105 0 -105 0 0 153 0 152
48 -50 c26 -28 81 -91 122 -139 144 -170 312 -361 319 -364 6 -2 98 106 236
278 49 61 134 161 192 224 l53 59 0 -156 0 -157 -105 0 -105 0 0 -50 0 -50
195 0 195 0 0 265 0 265 -159 0 -160 0 -53 -63 c-29 -35 -99 -120 -155 -188
-55 -68 -109 -134 -120 -146 l-18 -22 -80 96 c-44 53 -98 117 -120 143 -22 25
-65 76 -95 113 l-55 67 -152 0 -153 0 0 -265z"/>
<path d="M4330 955 l0 -265 215 0 215 0 0 50 0 50 -130 0 -130 0 0 165 0 165
130 0 130 0 0 50 0 50 -215 0 -215 0 0 -265z"/>
<path d="M40 590 l0 -50 495 0 495 0 0 50 0 50 -495 0 -495 0 0 -50z"/>
<path d="M1260 590 l0 -50 490 0 490 0 0 50 0 50 -490 0 -490 0 0 -50z"/>
<path d="M2480 590 l0 -50 430 0 430 0 0 50 0 50 -430 0 -430 0 0 -50z"/>
<path d="M3890 590 l0 -50 435 0 435 0 0 50 0 50 -435 0 -435 0 0 -50z"/>
<path d="M210 306 c0 -20 6 -25 29 -28 l29 -3 -76 -107 c-73 -105 -76 -108
-114 -108 -36 0 -38 -2 -38 -30 l0 -30 100 0 100 0 0 30 c0 28 -3 30 -36 30
l-35 0 27 35 26 35 99 0 98 0 16 -30 c20 -39 20 -40 -15 -40 -27 0 -30 -3 -30
-30 l0 -31 88 3 c85 3 87 3 87 28 0 20 -5 26 -30 28 -25 2 -36 12 -59 55 -16
29 -51 89 -78 135 l-49 82 -70 0 c-66 0 -69 -1 -69 -24z m147 -84 l25 -42 -61
0 -60 0 27 45 c15 24 31 43 36 42 4 -2 19 -22 33 -45z"/>
<path d="M600 305 c0 -22 4 -25 40 -25 l40 0 0 -109 0 -110 -37 -3 c-33 -3
-38 -6 -38 -28 0 -25 1 -25 98 -28 l97 -3 0 31 c0 28 -2 30 -40 30 l-40 0 0
50 0 50 130 0 130 0 0 -49 0 -50 -37 -3 c-33 -3 -38 -6 -38 -28 0 -25 1 -25
98 -28 l97 -3 0 31 c0 28 -3 30 -35 30 l-35 0 0 110 0 110 35 0 c31 0 35 3 35
25 l0 25 -100 0 -100 0 0 -25 c0 -22 4 -25 40 -25 l40 0 0 -40 0 -40 -130 0
-130 0 0 40 0 40 40 0 c36 0 40 3 40 25 l0 25 -100 0 -100 0 0 -25z"/>
<path d="M1180 305 c0 -22 4 -25 40 -25 l40 0 0 -110 0 -110 -40 0 c-38 0 -40
-2 -40 -30 l0 -30 95 0 95 0 0 30 c0 27 -3 30 -30 30 l-30 0 0 92 c0 51 4 88
8 83 5 -6 42 -58 82 -117 40 -60 74 -108 76 -108 1 0 37 52 79 115 42 63 79
115 81 115 2 0 4 -40 4 -90 l0 -90 -40 0 c-38 0 -40 -2 -40 -30 l0 -31 98 3
c96 3 97 3 97 28 0 21 -5 26 -32 28 l-33 3 0 110 0 109 35 0 c31 0 35 3 35 25
0 24 -3 25 -60 25 l-59 0 -78 -117 c-43 -64 -82 -118 -88 -120 -5 -1 -20 14
-32 35 -11 21 -47 75 -78 120 l-56 82 -65 0 c-62 0 -64 -1 -64 -25z"/>
<path d="M1830 305 c0 -22 4 -25 35 -25 l35 0 0 -109 0 -110 -32 -3 c-28 -2
-33 -7 -33 -28 l0 -25 198 -3 197 -2 0 55 c0 48 -2 55 -20 55 -15 0 -20 -7
-20 -25 l0 -25 -125 0 -125 0 0 50 0 50 75 0 c68 0 75 2 75 20 0 18 -7 20 -75
20 l-75 0 0 40 0 40 125 0 125 0 0 -30 c0 -23 4 -30 20 -30 18 0 20 7 20 55
l0 55 -200 0 -200 0 0 -25z"/>
<path d="M2340 306 c0 -24 4 -26 40 -26 l40 0 0 -109 0 -110 -37 -3 c-33 -3
-38 -6 -38 -28 l0 -25 175 0 c159 0 178 2 210 21 78 46 101 129 58 214 -42 81
-54 85 -264 88 l-184 3 0 -25z m370 -53 c49 -44 54 -124 10 -171 -19 -20 -30
-22 -140 -22 l-120 0 0 110 0 110 110 0 c106 0 111 -1 140 -27z"/>
<path d="M2920 306 c0 -21 5 -25 36 -28 l35 -3 -63 -105 c-58 -95 -67 -105
-96 -108 -28 -3 -32 -7 -32 -33 l0 -30 93 3 c91 3 92 3 92 28 0 21 -5 26 -32
28 l-31 3 16 30 c17 29 17 29 113 29 92 0 98 -1 113 -25 21 -32 21 -33 -16
-37 -28 -2 -33 -7 -33 -28 0 -25 1 -25 85 -25 84 0 85 0 85 25 0 18 -6 26 -22
28 -16 2 -47 41 -110 138 l-88 134 -72 0 c-71 0 -73 -1 -73 -24z m163 -98 c15
-20 27 -39 27 -42 0 -3 -27 -6 -60 -6 -33 0 -60 2 -60 5 0 13 55 93 60 87 3
-4 18 -24 33 -44z"/>
<path d="M3330 305 c0 -21 5 -25 30 -25 l30 0 0 -109 0 -110 -27 -3 c-22 -2
-28 -8 -28 -28 l0 -25 150 -3 c169 -3 216 5 233 43 16 35 15 101 -2 117 -11
12 -11 17 0 33 8 10 14 31 14 46 0 78 -28 89 -235 89 l-165 0 0 -25z m350 -45
c6 -12 8 -30 5 -40 -6 -18 -16 -20 -126 -20 l-119 0 0 40 0 40 115 0 c105 0
115 -2 125 -20z m4 -133 c19 -53 3 -62 -128 -65 l-116 -3 0 51 0 51 117 -3
118 -3 9 -28z"/>
<path d="M3890 306 c0 -21 5 -25 35 -28 l35 -3 -60 -99 c-33 -55 -60 -103 -60
-108 0 -4 -16 -8 -35 -8 -32 0 -35 -2 -35 -30 l0 -30 95 0 95 0 0 30 c0 28 -3
30 -36 30 l-35 0 18 30 17 30 96 0 96 0 17 -30 18 -30 -30 0 c-28 0 -31 -3
-31 -30 l0 -30 80 0 80 0 0 30 c0 24 -4 30 -20 30 -16 0 -43 34 -108 135 l-87
135 -72 0 c-71 0 -73 -1 -73 -24z m160 -90 c16 -25 30 -47 30 -50 0 -3 -27 -6
-60 -6 l-60 0 25 50 c14 28 27 50 30 50 2 0 18 -20 35 -44z"/>
<path d="M4330 305 c0 -22 4 -25 35 -25 l35 0 0 -110 0 -110 -35 0 c-32 0 -35
-2 -35 -31 l0 -31 178 4 c163 3 180 5 213 26 69 42 89 138 47 222 -37 72 -62
80 -265 80 l-173 0 0 -25z m368 -50 c18 -15 32 -39 36 -60 9 -45 -9 -112 -34
-125 -10 -5 -71 -10 -134 -10 l-116 0 0 110 0 110 109 0 c102 0 111 -2 139
-25z"/>
</g>
</svg>
