<?xml version="1.0" standalone="no"?>
<!DOCTYPE svg PUBLIC "-//W3C//DTD SVG 20010904//EN"
 "http://www.w3.org/TR/2001/REC-SVG-20010904/DTD/svg10.dtd">
<svg version="1.0" xmlns="http://www.w3.org/2000/svg"
 width="330.000000pt" height="330.000000pt" viewBox="0 0 330.000000 330.000000"
 preserveAspectRatio="xMidYMid meet">

<g transform="translate(0.000000,330.000000) scale(0.100000,-0.100000)"
fill="#000000" stroke="none">
<path d="M1550 3249 c-102 -23 -238 -67 -245 -80 -6 -9 30 -155 44 -178 7 -10
25 -8 92 14 46 14 112 33 147 41 70 16 96 12 270 -43 45 -14 84 -24 86 -22 2
2 15 46 29 97 l25 93 -36 15 c-39 17 -296 85 -315 83 -7 0 -50 -9 -97 -20z"/>
<path d="M1110 3089 c-106 -56 -265 -160 -323 -211 l-39 -33 69 -74 69 -75 99
72 c55 39 135 90 178 114 120 64 112 51 87 145 -33 123 -29 121 -140 62z"/>
<path d="M2075 3128 c-6 -15 -55 -180 -55 -184 0 -1 39 -23 86 -48 72 -38 125
-73 290 -191 11 -8 26 3 64 45 28 30 58 65 67 78 16 23 15 25 -13 48 -121 101
-430 278 -439 252z"/>
<path d="M1636 2954 c-3 -9 -6 -29 -6 -45 0 -35 -3 -35 -42 -7 -31 21 -129 38
-127 22 0 -5 28 -22 61 -39 68 -33 95 -65 34 -40 -50 21 -124 19 -163 -5 -18
-11 -33 -21 -33 -22 0 -2 43 -1 96 0 57 3 100 0 106 -6 7 -7 0 -13 -23 -17
-36 -7 -88 -40 -78 -50 4 -3 18 -1 33 5 15 5 38 10 52 10 l25 0 -22 -30 c-30
-40 -21 -45 24 -13 20 14 40 23 45 19 4 -4 9 -71 12 -149 3 -91 9 -142 16
-144 18 -6 24 33 24 170 0 141 4 148 59 101 34 -29 42 -15 14 25 l-16 24 34
-6 c19 -3 45 -9 59 -13 25 -7 25 -7 6 15 -11 12 -40 28 -65 35 -43 13 -44 14
-20 21 15 3 64 5 109 3 l81 -3 -27 24 c-24 20 -35 23 -93 19 -36 -3 -75 -8
-86 -12 -14 -5 -11 0 10 18 17 15 47 31 68 38 49 15 47 28 -4 28 -44 0 -72
-11 -106 -42 l-21 -20 -7 46 c-8 50 -19 66 -29 40z"/>
<path d="M2000 2822 c0 -36 -4 -44 -37 -67 -21 -14 -42 -25 -48 -25 -20 0
-114 -91 -146 -140 -33 -51 -43 -58 -54 -40 -3 6 -11 10 -16 10 -7 0 -8 -23
-4 -65 4 -35 4 -76 1 -89 l-6 -25 -57 40 c-111 77 -214 87 -411 39 -139 -34
-168 -36 -216 -16 l-33 14 4 68 c8 112 -32 139 -79 53 -51 -91 22 -198 139
-206 82 -6 89 -9 71 -31 -25 -28 -48 -80 -73 -162 -39 -129 -76 -188 -144
-228 -125 -73 -283 11 -268 144 12 107 90 193 164 181 42 -7 93 -54 93 -87 0
-18 -7 -20 -58 -20 -67 0 -104 -19 -84 -42 10 -12 8 -19 -8 -33 -27 -24 -25
-31 9 -38 24 -5 28 -10 24 -27 -5 -17 -1 -20 26 -20 78 0 147 65 158 149 7 55
-27 124 -79 158 -36 24 -39 29 -34 62 3 21 0 49 -8 66 -12 27 -14 28 -20 10
-21 -61 -44 -90 -101 -124 -109 -66 -169 -183 -147 -286 5 -27 13 -58 17 -67
5 -13 2 -18 -10 -18 -31 0 -81 -30 -99 -60 -20 -35 -20 -35 27 -15 50 21 123
19 192 -5 134 -46 267 -4 335 105 24 39 36 44 45 16 10 -33 77 -93 133 -118
45 -21 65 -25 127 -21 64 3 78 7 112 34 55 44 75 87 70 156 -2 42 -10 65 -30
91 l-27 35 40 40 c59 59 52 91 -14 57 -15 -8 -29 -15 -31 -15 -1 0 -5 18 -8
41 -3 22 -8 44 -12 47 -8 9 -45 -35 -45 -54 0 -21 -16 -17 -46 11 -15 14 -31
25 -35 25 -12 0 -11 -33 1 -64 9 -25 9 -26 -35 -26 -24 0 -46 -4 -50 -9 -3 -6
10 -22 28 -37 l34 -27 -36 -33 -36 -33 51 -1 52 0 -6 -45 c-2 -25 0 -45 5 -45
16 0 62 54 74 87 13 39 31 34 54 -13 30 -64 -5 -135 -77 -154 -58 -16 -130 3
-180 48 -56 51 -72 86 -72 162 1 155 132 280 295 280 110 0 206 -57 253 -152
44 -89 31 -157 -51 -265 -54 -72 -83 -139 -83 -195 l0 -28 -586 0 -587 0 6 38
c9 55 64 216 103 301 19 41 34 79 34 85 0 10 -75 45 -171 81 -30 11 -138 -264
-174 -441 -13 -68 -15 -167 -13 -709 l3 -630 1513 -3 1512 -2 0 654 0 653 -24
94 c-44 173 -136 395 -159 386 -37 -14 -173 -71 -176 -74 -2 -1 14 -42 37 -90
35 -77 89 -235 106 -315 l6 -28 -590 0 -590 0 -15 24 c-30 46 -29 88 4 184 35
102 38 147 15 236 -36 139 -3 275 93 377 64 68 126 99 200 99 129 0 224 -85
231 -206 4 -59 2 -64 -29 -99 -43 -46 -98 -56 -146 -26 -33 21 -43 41 -20 41
23 0 82 21 102 36 17 13 18 16 5 24 -8 5 -30 10 -47 10 -38 0 -37 -3 -18 43 8
20 15 39 15 42 0 12 -34 4 -60 -15 l-27 -19 -16 39 c-8 22 -20 40 -26 40 -6 0
-16 -18 -22 -40 -7 -22 -14 -40 -15 -40 -2 0 -18 9 -36 20 -18 11 -36 20 -40
20 -12 0 -9 -22 7 -54 18 -34 12 -46 -23 -46 -15 0 -33 -4 -40 -9 -16 -10 -1
-24 42 -40 l27 -11 -19 -28 c-35 -50 -35 -52 -4 -52 16 0 46 11 67 25 l37 26
44 -41 c24 -22 58 -43 74 -47 17 -3 30 -8 30 -12 0 -4 -39 -23 -88 -44 -93
-39 -146 -46 -178 -22 -26 20 -34 19 -34 -5 0 -12 11 -32 25 -46 l24 -24 -20
-41 c-72 -136 73 -290 208 -221 53 28 73 60 73 121 0 39 -5 56 -25 78 -21 24
-26 26 -35 13 -8 -12 -13 -13 -30 -2 -28 17 -30 16 -30 -18 0 -20 -5 -30 -15
-30 -8 0 -15 -3 -15 -6 0 -11 23 -50 43 -71 l20 -22 -27 -11 c-40 -15 -93 10
-110 52 -31 74 12 130 144 190 47 21 93 43 102 48 33 19 38 11 38 -65 0 -51 6
-90 20 -125 28 -71 26 -111 -6 -144 l-27 -26 25 0 c14 0 41 11 61 24 l35 24
49 -24 c41 -22 59 -25 123 -21 41 2 106 12 143 22 67 18 110 16 170 -10 10 -4
17 -3 17 4 0 16 -60 81 -75 81 -23 0 -27 17 -14 60 23 76 -34 171 -112 187
-29 5 -30 7 -23 49 3 24 3 56 -1 71 l-7 28 -23 -27 c-12 -15 -25 -33 -27 -40
-3 -9 -14 -5 -37 15 -51 42 -61 35 -42 -30 l9 -32 -50 -3 -51 -3 33 -32 33
-32 -32 -26 c-38 -33 -31 -48 21 -43 43 4 43 4 22 -69 -8 -30 7 -29 45 3 35
29 43 27 61 -16 19 -47 35 -31 35 36 0 32 -3 66 -5 74 -8 25 42 13 68 -16 44
-51 14 -128 -67 -171 -103 -54 -225 -10 -284 102 -30 57 -27 155 8 265 40 126
38 124 82 95 20 -14 50 -25 69 -25 35 0 84 18 84 31 0 19 -55 49 -90 49 -44 0
-62 18 -114 115 -21 39 -52 85 -69 103 -40 42 -118 80 -179 88 -39 5 -49 11
-54 29 -3 13 -17 33 -30 46 l-24 22 0 -41z m-1362 -1424 l-3 -63 -37 -3 -38
-3 0 -189 0 -189 38 -3 37 -3 3 -62 3 -63 -144 0 c-142 0 -145 0 -151 23 -18
68 -4 107 40 107 l34 0 0 190 0 190 -34 0 c-44 0 -58 39 -40 108 6 22 9 22
151 22 l144 0 -3 -62z m427 -3 l0 -60 -36 -3 c-46 -4 -49 -16 -49 -192 0 -176
3 -188 49 -192 l36 -3 0 -60 0 -60 -148 -3 -148 -3 3 63 3 63 38 3 37 3 0 190
0 189 -40 0 -40 0 0 65 0 66 148 -3 147 -3 0 -60z m453 -12 c17 -43 51 -138
78 -211 26 -73 50 -129 54 -125 4 4 35 87 70 183 35 96 69 187 77 203 l14 27
145 0 145 0 -3 -62 -3 -63 -37 -3 -38 -3 0 -189 0 -189 38 -3 37 -3 3 -63 3
-63 -128 3 c-144 3 -141 1 -128 84 4 29 11 44 21 44 12 0 14 27 13 158 0 86
-3 153 -5 147 -3 -5 -40 -104 -82 -220 l-77 -210 -66 -3 c-56 -2 -68 0 -74 15
-4 10 -38 106 -77 213 -39 107 -74 202 -79 210 -5 9 -9 -51 -9 -147 0 -156 1
-163 20 -163 18 0 20 -7 20 -65 l0 -65 -125 0 -125 0 0 65 0 65 35 0 35 0 0
190 0 190 -35 0 -35 0 0 65 0 65 144 0 145 0 29 -77z m1262 12 l0 -65 -30 0
c-16 0 -30 -3 -30 -7 1 -5 35 -89 78 -188 l77 -180 38 -3 37 -3 0 -65 0 -64
-145 0 -145 0 0 64 0 65 34 3 34 3 -15 38 -15 37 -127 0 -127 0 -17 -35 c-9
-20 -17 -38 -17 -40 0 -3 16 -5 35 -5 l35 0 0 -65 0 -65 -145 0 -145 0 0 64 0
65 38 3 37 3 77 180 c43 99 77 183 78 188 0 4 -13 7 -30 7 l-30 0 0 65 0 65
210 0 210 0 0 -65z"/>
<path d="M2534 1245 c-18 -40 -29 -76 -26 -79 7 -8 117 -8 124 0 6 6 -54 154
-62 154 -3 0 -19 -34 -36 -75z"/>
<path d="M1174 2789 c-42 -12 -92 -65 -100 -106 -9 -49 3 -82 45 -125 36 -35
43 -38 94 -38 35 0 83 10 126 25 94 34 154 40 214 22 l48 -15 -3 36 c-4 43
-19 49 -119 51 -49 1 -88 -7 -152 -29 -48 -16 -98 -30 -111 -30 -37 0 -76 37
-76 72 0 27 2 30 23 23 12 -4 42 -10 66 -12 41 -5 44 -4 38 16 -3 12 0 21 6
21 7 0 19 5 27 10 13 8 11 12 -8 26 -17 12 -20 19 -12 29 6 7 7 15 3 18 -19
11 -81 14 -109 6z"/>
<path d="M609 2713 c-105 -111 -271 -335 -257 -348 3 -3 46 -23 95 -44 l91
-39 57 84 c31 46 95 126 142 179 l85 95 -50 58 c-91 105 -78 104 -163 15z"/>
<path d="M2542 2720 c-34 -38 -62 -75 -62 -82 0 -8 18 -32 41 -53 52 -51 135
-153 189 -232 23 -35 47 -63 53 -63 21 0 170 65 174 77 12 31 -257 381 -317
413 -13 7 -30 -5 -78 -60z"/>
<path d="M1631 2170 c0 -57 3 -78 9 -65 12 28 12 117 0 135 -7 10 -10 -12 -9
-70z"/>
<path d="M440 353 c-8 -3 -31 -23 -51 -44 -25 -27 -32 -40 -22 -43 9 -4 13
-29 13 -91 0 -47 4 -85 9 -85 14 0 21 39 21 113 l0 67 43 0 c76 0 117 -11 117
-30 0 -15 -6 -17 -40 -13 -50 7 -70 -8 -70 -53 0 -46 39 -73 81 -57 26 10 29
9 29 -8 0 -10 4 -19 10 -19 5 0 10 37 12 83 l3 82 48 3 c28 2 47 -1 47 -7 0
-6 -6 -11 -14 -11 -23 0 -41 -29 -29 -48 7 -12 7 -24 0 -39 -14 -32 7 -53 54
-53 21 0 41 5 45 11 5 8 10 6 16 -5 18 -32 28 -4 28 75 0 65 3 81 16 86 29 11
44 -25 44 -104 0 -42 4 -73 10 -73 6 0 10 35 10 85 l0 85 30 0 30 0 0 -85 c0
-50 4 -85 10 -85 6 0 10 15 10 33 0 17 3 56 6 85 l7 52 73 0 c64 0 74 -2 74
-17 0 -14 -9 -18 -42 -18 -37 0 -44 -4 -56 -28 -12 -24 -11 -31 2 -52 19 -29
49 -39 75 -26 16 9 21 7 26 -9 14 -44 25 -15 25 65 l0 85 30 0 30 0 0 -85 c0
-47 4 -85 9 -85 15 0 21 29 21 101 l0 69 95 0 c88 0 95 -1 95 -20 0 -18 -7
-20 -55 -20 -42 0 -60 -5 -75 -20 -38 -38 -16 -80 42 -80 32 0 48 18 48 53 0
22 4 28 18 25 13 -2 18 -15 20 -56 2 -37 7 -52 17 -52 11 0 15 20 17 88 3 83
4 87 27 90 31 5 71 -6 71 -19 0 -5 -11 -21 -25 -35 -50 -50 -17 -101 60 -91
40 6 45 5 45 -13 0 -11 5 -20 10 -20 6 0 10 31 10 73 0 80 14 113 43 101 14
-5 17 -20 17 -90 0 -49 4 -84 10 -84 6 0 10 33 10 80 0 75 2 81 24 91 14 7 40
9 60 5 34 -7 36 -9 36 -45 0 -51 -22 -71 -44 -40 -18 27 -31 20 -21 -11 5 -17
13 -21 43 -18 37 3 37 3 40 55 2 35 8 53 18 57 28 11 34 -4 34 -90 0 -64 3
-85 13 -82 8 3 13 32 15 86 3 80 4 82 27 82 23 0 25 -3 25 -54 0 -29 3 -68 6
-85 12 -58 24 -31 24 53 0 87 8 104 45 90 12 -5 15 -25 15 -90 0 -46 4 -84 9
-84 13 0 21 38 21 106 l0 61 56 7 c30 3 60 4 65 0 17 -10 4 -26 -31 -38 l-35
-11 -1 -70 c0 -38 4 -76 9 -83 5 -6 25 -12 43 -12 19 0 34 -4 34 -10 0 -5 5
-10 10 -10 6 0 10 30 10 70 0 64 -9 86 -25 60 -8 -13 -52 -13 -60 0 -15 24 6
49 43 52 29 2 38 8 40 25 3 18 12 23 48 29 63 9 114 -2 114 -26 0 -15 -6 -17
-39 -13 -34 5 -41 2 -56 -21 -34 -51 13 -114 64 -86 20 10 23 9 28 -9 10 -38
23 -22 23 27 0 50 12 72 41 72 42 0 49 -62 7 -75 -14 -5 -17 -10 -10 -17 8 -8
19 -6 36 6 19 12 26 25 26 50 0 43 -21 60 -65 53 -30 -5 -35 -3 -35 14 0 14 7
19 29 19 15 0 49 3 75 6 l46 7 0 -60 c0 -70 9 -123 21 -123 4 0 10 39 11 88 3
83 4 87 27 90 13 2 39 1 58 -3 28 -5 34 -10 31 -28 -2 -14 -15 -27 -35 -36
-27 -12 -33 -20 -33 -46 0 -46 19 -67 59 -63 19 2 39 11 45 20 15 24 -3 37
-19 15 -19 -27 -49 -18 -53 16 -3 27 -3 27 57 27 l61 0 0 -40 c0 -74 18 -41
22 41 3 66 7 83 23 95 16 12 -21 14 -288 14 l-306 0 -16 30 c-31 59 -151 62
-177 4 -11 -24 -11 -24 -186 -24 l-174 0 -28 30 c-27 29 -70 41 -70 20 0 -5 8
-10 18 -10 21 0 42 -18 42 -37 0 -10 -28 -13 -120 -13 l-119 0 -35 34 c-60 61
-189 58 -221 -4 -20 -40 -47 -38 -79 4 -20 27 -36 36 -69 41 -52 8 -112 -13
-122 -44 -9 -28 -67 -35 -219 -26 -117 6 -124 8 -137 31 -17 33 -94 53 -139
37z m89 -26 c50 -25 37 -37 -43 -37 -79 0 -91 8 -54 34 27 19 64 20 97 3z
m570 -12 c14 -14 14 -17 1 -25 -21 -14 -127 -12 -136 2 -4 6 3 20 17 31 28 22
92 19 118 -8z m299 1 c15 -15 15 -18 2 -27 -17 -11 -155 -8 -167 5 -4 4 3 17
17 28 20 16 35 19 78 16 32 -3 60 -12 70 -22z m836 3 c21 -17 25 -24 14 -30
-15 -10 -89 -12 -112 -3 -23 9 -20 33 7 44 36 14 63 11 91 -11z m-1476 -113
c4 -68 -9 -88 -52 -84 -38 4 -46 30 -14 46 l23 11 -22 7 c-30 8 -29 32 1 43
13 5 26 17 30 26 13 34 31 8 34 -49z m856 58 c21 -8 21 -72 0 -102 -20 -29
-69 -30 -85 -1 -11 21 0 38 23 39 4 0 11 12 14 28 11 45 16 48 48 36z m1210 0
c10 -4 16 -18 16 -35 0 -26 -4 -29 -30 -29 -33 0 -35 5 -20 44 10 28 11 29 34
20z m-2264 -69 c10 -12 10 -21 2 -40 -19 -40 -82 -29 -82 15 0 37 55 55 80 25z
m548 -22 c3 -28 -1 -33 -23 -39 -31 -8 -55 10 -55 41 0 30 9 36 45 33 26 -3
30 -7 33 -35z m1323 16 c9 -18 7 -25 -10 -43 -17 -16 -25 -18 -39 -10 -19 12
-27 37 -18 60 8 22 54 17 67 -7z m-1081 -4 c17 -20 5 -45 -20 -45 -23 0 -35
22 -26 45 7 19 30 19 46 0z m910 -79 c0 -45 -51 -60 -67 -20 -7 19 21 44 49
44 12 0 18 -8 18 -24z"/>
<path d="M2912 218 c5 -15 28 -18 29 -3 0 6 -7 12 -17 13 -10 3 -15 -1 -12
-10z"/>
<path d="M2915 109 c-10 -15 1 -23 20 -15 9 3 13 10 10 16 -8 13 -22 13 -30
-1z"/>
</g>
</svg>
